<?xml version="1.0" encoding="UTF-8" standalone="no"?>
<!-- Created with Inkscape (http://www.inkscape.org/) -->

<svg
   version="1.1"
   id="svg2"
   width="586.66669"
   height="174"
   viewBox="0 0 586.66669 174"
   sodipodi:docname="musilene.svg"
   inkscape:version="1.2.2 (732a01da63, 2022-12-09)"
   xmlns:inkscape="http://www.inkscape.org/namespaces/inkscape"
   xmlns:sodipodi="http://sodipodi.sourceforge.net/DTD/sodipodi-0.dtd"
   xmlns="http://www.w3.org/2000/svg"
   xmlns:svg="http://www.w3.org/2000/svg">
  <defs
     id="defs6" />
  <sodipodi:namedview
     id="namedview4"
     pagecolor="#ffffff"
     bordercolor="#000000"
     borderopacity="0.25"
     inkscape:showpageshadow="2"
     inkscape:pageopacity="0.0"
     inkscape:pagecheckerboard="0"
     inkscape:deskcolor="#d1d1d1"
     showgrid="false"
     inkscape:zoom="2.7126437"
     inkscape:cx="286.80508"
     inkscape:cy="170.31356"
     inkscape:window-width="2560"
     inkscape:window-height="1494"
     inkscape:window-x="-11"
     inkscape:window-y="-11"
     inkscape:window-maximized="1"
     inkscape:current-layer="g8" />
  <g
     inkscape:groupmode="layer"
     inkscape:label="Image"
     id="g8">
    <path
       style="fill:#000000;fill-opacity:1;stroke:none;stroke-width:0.858237;stroke-dasharray:none;stroke-opacity:1"
       d="m 394.75181,126.99729 c -2.84652,-0.35661 -11.53099,-2.44965 -19.29884,-4.6512 -10.22984,-2.89933 -16.51119,-4.14115 -22.78513,-4.50461 -10.13885,-0.58739 -14.31313,0.51511 -19.12534,5.05133 l -3.24226,3.05631 0.64431,-4.2589 c 0.85452,-5.64868 4.30848,-13.32662 7.20673,-16.02014 7.54009,-7.00743 17.99357,-7.245121 43.24913,-0.98334 9.76521,2.42115 20.36027,4.65238 23.54457,4.95825 9.31353,0.89468 15.41464,-2.19001 16.90385,-8.5465 l 0.71183,-3.038292 0.0695,3.401902 c 0.11082,5.41589 -1.98561,12.56186 -4.93274,16.81386 -4.93157,7.11498 -12.57578,10.02044 -22.94572,8.72133 z m -247.63908,-1.20141 c -11.441,-3.18135 -17.91667,-10.0515 -22.1291,-23.47701 -1.15355,-3.676498 -1.39439,-9.276081 -1.76181,-40.961259 -0.40352,-34.795864 -0.50803,-36.875813 -2.01178,-40.03705 -0.87239,-1.833952 -2.43559,-3.865339 -3.47379,-4.514189 -1.56533,-0.9783 0.61298,-1.182127 12.75826,-1.193782 13.49001,-0.01287 14.51013,0.103387 12.92579,1.473785 -0.94602,0.818315 -2.326,2.856023 -3.06657,4.528246 -1.21019,2.732573 -1.34651,6.515047 -1.34651,37.3597 0,36.582804 0.29272,40.248157 3.93082,49.217869 4.61181,11.37048 13.0246,16.31503 24.056,14.13873 2.75826,-0.54415 6.05704,-1.65481 7.33059,-2.46812 3.77369,-2.40991 8.86533,-9.58978 10.5819,-14.92181 1.27813,-3.97019 1.50185,-4.30071 1.10838,-1.63758 -0.60644,4.10473 -2.69716,9.31988 -5.22149,13.02468 -5.78999,8.49765 -21.39458,12.88415 -33.68069,9.46779 z m 54.03669,-6.63374 c 0,-4.30542 -0.51828,-12.9596 -1.15176,-19.231557 -0.63347,-6.271935 -1.14745,-11.618019 -1.14217,-11.880191 0.006,-0.262161 1.52775,3.44602 3.38328,8.240416 5.80655,15.003252 12.3261,25.087212 18.48378,28.589322 l 2.42753,1.38062 -2.70183,-0.50471 c -8.62525,-1.61125 -14.53764,-1.69911 -16.88822,-0.25101 l -2.41061,1.48511 z m 36.3112,5.82916 c 6.52263,-4.06189 7.97806,-13.043 3.79069,-23.39134 -2.71722,-6.715205 -6.82267,-11.643225 -20.14876,-24.185823 -15.25069,-14.354032 -20.11002,-22.908674 -20.61084,-36.28442 -0.22782,-6.084383 0.0175,-8.105547 1.4169,-11.675554 2.34384,-5.979251 7.04604,-10.657313 12.992,-12.925305 6.2417,-2.380787 8.46787,-2.397031 4.24791,-0.03103 -8.02432,4.499074 -7.83251,18.358965 0.40074,28.958794 1.55589,2.003105 7.5914,8.147545 13.41224,13.654334 16.55781,15.664371 21.90429,23.8699 23.75203,36.453555 1.55073,10.561009 -1.33836,20.255019 -7.70518,25.853719 -2.60463,2.29039 -10.6092,5.71799 -13.35339,5.71799 -1.13529,0 -0.58057,-0.65894 1.80566,-2.14495 z m 322.64689,1.19165 c -7.00547,-0.30169 -11.94408,-0.63961 -10.97467,-0.75093 3.25112,-0.37331 9.61567,-5.095 13.34841,-9.90285 4.35609,-5.61068 9.05531,-16.335264 12.31349,-28.101976 1.28436,-4.638297 2.15785,-6.931818 1.94113,-5.09669 -1.08628,9.197543 -2.02238,31.791906 -1.56996,37.894236 0.47017,6.3422 0.39567,6.89485 -0.90441,6.70914 -0.77922,-0.11125 -7.14852,-0.44924 -14.15399,-0.75093 z M 8.7241024,124.1792 c 3.5286746,-2.79094 6.8714566,-11.79576 8.2803746,-22.30576 1.156741,-8.62885 2.62355,-29.947202 2.853285,-41.469148 0.06796,-3.408091 0.377295,0.667325 0.687425,9.056476 1.313064,35.519002 4.714158,51.529412 11.748576,55.305622 2.267843,1.21742 1.174641,1.34391 -11.781321,1.36319 l -14.2811287,0.0213 z M 39.82536,79.232242 C 29.942277,53.409347 20.882688,30.136573 19.692943,27.514966 17.513181,22.711851 14.48426,18.649762 11.634983,16.708448 10.469147,15.914114 14.133547,15.649426 26.599181,15.627533 l 16.508106,-0.02903 -2.120302,2.059659 c -3.472064,3.372772 -2.579325,7.665972 6.906356,33.212943 10.026732,27.004168 13.062662,34.55607 14.709282,36.589545 2.094115,2.586107 4.664372,1.871278 7.30606,-2.031912 l 2.419516,-3.574927 -1.595662,5.243227 C 62.639908,113.68889 58.653228,126.1829 58.260745,126.1829 c -0.256373,0 -8.552303,-21.12782 -18.435385,-46.950697 z m 44.284517,44.959898 c 4.416596,-4.29028 4.334418,-3.22527 4.334418,-56.176671 0,-31.767086 -0.278157,-49.370869 -0.799109,-50.572974 -0.774262,-1.786605 -0.422865,-1.843947 11.297415,-1.843947 h 12.096549 l -2.04941,1.990791 c -4.40009,4.274253 -4.33443,3.46246 -4.33443,53.58974 v 46.142081 l 1.76008,3.22537 c 0.96802,1.77395 2.61808,3.76152 3.66677,4.41684 1.5899,0.9935 -0.57965,1.19381 -13.057504,1.20553 l -14.964198,0.0143 z m 180.965103,0.0598 c 4.85546,-3.65577 4.85813,-3.68757 4.61329,-54.774478 -0.21622,-45.113147 -0.25616,-46.173112 -1.83934,-48.80513 -0.89008,-1.479748 -2.45328,-3.220366 -3.47379,-3.868028 -1.53303,-0.972952 0.76039,-1.179411 13.19761,-1.188077 l 15.05309,-0.01001 -2.37738,1.79031 c -4.53846,3.417714 -4.57021,3.789307 -4.57021,53.494731 0,49.705412 0.0317,50.077002 4.57021,53.494752 l 2.37738,1.79032 h -15.05309 -15.05308 l 2.55531,-1.92395 z m 35.0677,0.43877 c 1.16225,-0.77878 2.72545,-2.79932 3.47378,-4.49008 1.23422,-2.7885 1.38206,-7.19271 1.59127,-47.403192 0.16381,-31.481634 -0.0286,-45.48375 -0.66396,-48.313133 -0.87057,-3.87688 -3.00643,-7.151598 -5.35634,-8.212451 -0.63685,-0.287495 5.61596,-0.550267 13.89516,-0.583942 12.44068,-0.05063 14.72549,0.14354 13.16545,1.118522 -1.03819,0.64885 -2.6014,2.680238 -3.47378,4.514189 -1.54487,3.247649 -1.58616,4.615073 -1.58616,52.521695 0,40.288772 0.19167,49.472472 1.05945,50.763962 0.97839,1.45607 0.0924,1.57381 -11.57928,1.53857 -11.62244,-0.0351 -12.46883,-0.15203 -10.52559,-1.45414 z m 125.4766,-0.0931 c 6.82014,-4.15126 9.46609,-15.7828 11.34986,-49.89352 0.74053,-13.409322 0.99934,-15.694171 1.07986,-9.533129 0.2838,21.719671 3.15958,45.383449 6.39472,52.620269 0.99042,2.21546 2.9811,5.00994 4.42375,6.20997 l 2.62302,2.18185 -14.20233,-0.0217 c -13.61856,-0.0207 -14.09816,-0.0851 -11.66888,-1.56372 z M 466.17542,76.016613 C 434.57402,25.890992 430.6002,20.045729 426.17369,17.176178 c -2.19926,-1.42571 -1.71237,-1.503229 9.67062,-1.539464 9.47914,-0.03018 12.33469,0.263 13.65101,1.4016 0.91547,0.791875 11.1121,16.25043 22.65916,34.352343 11.54705,18.101914 21.64406,33.341801 22.43779,33.866382 1.59053,1.051215 4.13234,-0.123976 4.75972,-2.200621 0.51988,-1.720858 -0.32947,35.237462 -0.91174,39.672562 l -0.48523,3.69587 -31.7796,-50.408252 z m 50.33675,47.068077 c 4.09725,-4.70304 4.34711,-8.15221 4.07665,-56.277417 -0.21412,-38.100612 -0.3675,-42.447338 -1.59578,-45.222267 -2.52545,-5.705368 -5.44888,-6.382031 -9.34084,-2.162015 -4.93349,5.349347 -7.58461,16.062045 -8.72626,35.261419 l -0.59523,10.009794 -0.59538,-9.533142 c -1.33117,-21.313829 -4.49488,-32.999363 -10.0397,-37.08273 l -3.15209,-2.321286 13.81639,-0.317582 c 7.59902,-0.174671 19.14131,-0.178904 25.64955,-0.01001 10.76552,0.28036 11.77544,0.452385 11.19331,1.906622 -0.35191,0.879161 -0.73265,24.720819 -0.84607,52.981458 -0.18042,44.952786 -0.0574,51.663446 0.98273,53.623916 l 1.18896,2.24089 h -12.35769 -12.35771 l 2.69916,-3.09826 z M 373.29491,94.67098 365.96136,93.188414 365.57537,58.921713 c -0.36477,-32.383875 -0.47313,-34.44991 -1.97213,-37.601152 -0.87238,-1.833952 -2.43558,-3.865339 -3.47379,-4.514189 -1.5757,-0.984777 0.20088,-1.182042 10.75113,-1.193782 11.6659,-0.01287 12.5572,0.107248 11.57929,1.561157 -0.84488,1.256157 -1.13762,9.413882 -1.44542,40.277512 l -0.38599,38.702304 z M 564.42267,83.616278 c -2.97828,-8.941937 -6.79852,-12.308931 -16.69913,-14.717973 l -4.98498,-1.212959 5.42714,-1.131065 c 9.34959,-1.948549 13.39257,-5.466277 16.92919,-14.729813 l 2.00175,-5.243231 -0.5939,5.243231 c -0.32665,2.883779 -0.59043,12.214337 -0.58616,20.734576 0.004,8.520237 9.7e-4,15.489744 -0.006,15.487771 -0.008,-8.57e-4 -0.67709,-1.995695 -1.48805,-4.430537 z M 409.28268,82.971806 C 406.83526,75.05776 401.06562,70.370202 391.43581,68.472115 l -3.85978,-0.760772 4.24574,-0.808592 c 10.31141,-1.963764 16.07357,-6.962126 18.83776,-16.34069 l 1.17329,-3.980824 -0.53377,6.19655 c -0.29356,3.408091 -0.52724,12.524155 -0.51924,20.257908 0.008,7.733768 -0.0386,14.061391 -0.1034,14.061391 -0.0648,0 -0.69203,-1.856373 -1.39367,-4.12528 z M 187.01145,62.340615 C 185.59366,33.856758 182.83101,22.447893 176.12942,17.401212 l -2.38434,-1.795543 h 13.89517 13.89515 l -2.4019,1.808727 c -6.42553,4.838706 -9.6784,18.164503 -10.95937,44.896519 l -0.57103,11.916433 z m 66.2323,-15.515797 c -1.26685,-3.728019 -3.94901,-10.08943 -5.96035,-14.136462 -3.70952,-7.463946 -10.57069,-16.136503 -12.76618,-16.136503 -0.6617,0 -0.98575,-0.268406 -0.72012,-0.596442 0.26564,-0.328049 3.2598,-0.03961 6.65368,0.641085 5.95,1.193267 8.22475,0.919943 12.8126,-1.539492 0.4955,-0.265632 0.82202,3.660582 0.89704,10.786726 0.0648,6.162402 0.51742,14.788443 1.00567,19.168987 0.48824,4.380529 0.7737,8.105403 0.63439,8.277456 -0.13935,0.172084 -1.28986,-2.737335 -2.55673,-6.465355 z m 164.55835,0.387408 c -1.90447,-6.540457 -7.05552,-17.154001 -10.39842,-21.425594 -3.51078,-4.486119 -7.00007,-7.214874 -11.16996,-8.735362 -2.88602,-1.05233 -1.85983,-1.214604 10.67161,-1.687509 7.62557,-0.287767 13.92285,-0.459578 13.99395,-0.381802 0.0711,0.07779 -0.20261,2.286037 -0.60825,4.907244 -0.40564,2.621195 -0.76931,10.878946 -0.80819,18.350543 -0.0387,7.471596 -0.13077,13.584722 -0.20419,13.584722 -0.0733,0 -0.73789,-2.075503 -1.47655,-4.612242 z m 154.66912,-0.869308 c -5.57734,-16.839535 -12.63308,-26.463081 -21.58898,-29.445985 -3.32226,-1.106526 -3.01158,-1.173548 5.75148,-1.240829 5.09489,-0.03918 11.57214,-0.340433 14.3939,-0.669598 l 5.13047,-0.598485 -0.75921,4.656842 c -0.41757,2.561263 -0.8157,10.984406 -0.88473,18.718074 -0.0691,7.733681 -0.14844,14.061316 -0.17645,14.061387 -0.0281,7.3e-5 -0.86793,-2.466555 -1.86648,-5.481406 z"
       id="path170"
       sodipodi:nodetypes="sssscssscscsssssssssccssssssssssscsscsscscssssscscsssccsssssssscssssccccscccsssscsscccssscsscssccccsssccssscccccssscsssssssssssssccsssssssssccscsssscsscscssscccccccssscssccsscsscsccsssscsscscssssscccsscssssscscssssssssscsssssscssss"
       inkscape:export-filename="musilene_white.png"
       inkscape:export-xdpi="96"
       inkscape:export-ydpi="96" />
  </g>
</svg>
