<?xml version="1.0" encoding="UTF-8" standalone="no"?>
<!-- Created with Inkscape (http://www.inkscape.org/) -->

<svg
   version="1.1"
   id="svg2"
   width="5875.8398"
   height="2605.4399"
   viewBox="0 0 5875.8398 2605.4399"
   sodipodi:docname="Musilene_logo.png"
   inkscape:export-filename="Musilene_logo.png"
   inkscape:export-xdpi="96"
   inkscape:export-ydpi="96"
   xmlns:inkscape="http://www.inkscape.org/namespaces/inkscape"
   xmlns:sodipodi="http://sodipodi.sourceforge.net/DTD/sodipodi-0.dtd"
   xmlns="http://www.w3.org/2000/svg"
   xmlns:svg="http://www.w3.org/2000/svg">
  <defs
     id="defs6" />
  <sodipodi:namedview
     id="namedview4"
     pagecolor="#ffffff"
     bordercolor="#000000"
     borderopacity="0.25"
     inkscape:showpageshadow="2"
     inkscape:pageopacity="0.0"
     inkscape:pagecheckerboard="0"
     inkscape:deskcolor="#d1d1d1"
     showgrid="false" />
  <g
     inkscape:groupmode="layer"
     inkscape:label="Image"
     id="g8">
    <path
       style="fill:rgb(229 231 235);fill-opacity:1;stroke-width:0.32"
       d="m 2485.7599,2534.5325 c -24.7464,-1.0718 -46.8663,-4.5425 -66.08,-10.3683 -37.6329,-11.4106 -67.0205,-24.2776 -90.08,-39.4406 -12.7029,-8.3529 -20.9319,-15.064 -31.864,-25.9866 -10.5626,-10.5534 -17.9481,-19.5595 -25.731,-31.3771 -16.7442,-25.4249 -24.3114,-46.609 -30.8627,-86.4 -1.5947,-9.6857 -1.9423,-13.1388 -1.9423,-19.2941 v -4.8263 l 3.3689,-23.6069 3.3689,-23.6071 1.7591,-6.3328 c 14.7173,-52.9855 41.0437,-87.5675 81.5808,-107.1635 25.7695,-12.4572 50.1158,-16.4841 74.4391,-12.3124 3.4563,0.5928 7.5674,1.0886 20.1232,2.4267 10.3376,1.1017 16.803,2.7496 27.84,7.0957 6.0572,2.3852 14.5654,6.4272 19.6824,9.3505 5.1238,2.9274 13.8652,8.8203 17.9176,12.079 20.3235,16.3432 32.9121,38.4632 41.586,73.0722 2.0022,7.989 5.8632,26.8605 6.9068,33.759 l 0.6777,4.48 0.1742,7.2 0.1741,7.2 -0.5381,3.68 c -2.0145,13.7771 -6.0459,29.7732 -10.3231,40.96 -12.8103,33.5052 -38.069,57.4613 -73.3776,69.5937 -15.1777,5.2152 -29.9969,7.9315 -48.4004,8.8716 l -7.6003,0.3882 0.1843,0.6533 c 0.5678,2.0124 5.6098,11.5039 8.082,15.2142 4.0131,6.0227 6.5051,9.0429 11.8814,14.399 22.708,22.6231 55.7149,33.2018 92.2754,29.5743 8.8736,-0.8804 19.4461,-2.9967 36.8576,-7.3779 48.5832,-12.2247 82.5871,-27.5162 110.08,-49.5029 4.3852,-3.5069 15.0521,-14.2654 18.7724,-18.9335 15.3188,-19.2217 26.6694,-42.3157 35.3089,-71.84 6.4964,-22.2005 11.5767,-50.9395 12.6483,-71.5508 l 0.3244,-6.2393 -0.3217,-5.345 c -0.183,-3.0398 -0.8,-8.243 -1.4307,-12.0649 -0.61,-3.696 -2.2034,-13.848 -3.5409,-22.56 -4.3215,-28.1476 -6.3444,-39.532 -9.3233,-52.4698 -1.6711,-7.2571 -8.5253,-39.8934 -11.1585,-53.1302 -0.9978,-5.016 -1.9098,-9.218 -2.0265,-9.3378 -0.1168,-0.1197 -10.7244,0.064 -23.5724,0.409 l -23.36,0.6267 -61.44,0.3051 -61.44,0.305 -25.546,-0.4467 c -14.0503,-0.2457 -25.5867,-0.495 -25.6364,-0.554 -0.1242,-0.1475 -3.308,-48.0818 -3.2022,-48.2108 0.3478,-0.4237 71.9062,-0.5829 137.0373,-0.3048 42.4669,0.1813 77.2933,0.249 77.3919,0.1504 0.099,-0.099 -4.1789,-21.933 -9.5057,-48.5207 l -9.6851,-48.3414 H 1510.0268 351.83995 v 72.64 72.64 h -16.1071 -16.1071 l -0.2129,-37.973 c -0.1171,-20.8852 -0.2129,-53.5732 -0.2129,-72.64 v -34.667 H 161.11995 3.0399547 v -17.76 -17.76 h 158.0799953 158.08 v -130.72 -130.72 H 161.11995 3.0399547 v -17.76 -17.76 h 158.0799953 158.08 l 10e-5,-66.8 c 1e-4,-36.74 0.096,-99.956 0.2131,-140.48 l 0.213,-73.68 H 161.33305 3.0399547 v -17.76 -17.76 H 161.23965 319.43935 l 0.23,-57.0399 c 0.1266,-31.372 0.3581,-91.312 0.5146,-133.2 0.1564,-41.888 0.4246,-79.832 0.5959,-84.32 0.4134,-10.8284 0.9398,-21.4851 1.1738,-23.76 l 0.1892,-1.84 H 162.59145 3.0399547 V 992 974.24 H 165.85415 328.66835 l 2.1795,-7.12 c 4.2307,-13.8207 10.8886,-29.2014 17.1419,-39.6 24.4118,-40.59473 61.2232,-69.40533 108.9702,-85.28593 12.9717,-4.3144 19.2505,-5.734 43.68,-9.8759 20.7331,-3.5152 26.2301,-4.03 43.0845,-4.035 17.4229,-0.01 33.3239,1.2021 48.9155,3.7139 7.0094,1.1293 32.2692,6.2201 37.9372,7.6459 10.9921,2.7651 23.5353,7.7348 37.5828,14.8907 22.7175,11.5724 39.9934,25.0896 53.4305,41.80573 3.2833,4.0846 9.2423,12.9689 11.8562,17.6767 7.526,13.5545 13.0737,29.8513 15.8035,46.4239 0.84,5.0991 1.6298,11.2329 1.6298,12.6564 v 1.1036 l 747.59995,-0.019 747.6,-0.02 5.8818,-6.8722 c 3.2349,-3.7797 5.8269,-6.9205 5.76,-6.9796 -0.067,-0.059 -101.1687,-51.4617 -224.6706,-114.22833 L 1808.5023,731.99997 H 905.77115 3.0399547 v -17.6 -17.6 H 458.23385 913.42775 l 0.1706,-0.72 c 0.094,-0.396 2.4717,-13.032 5.2843,-28.08 3.0143,-16.1273 6.1591,-31.8925 7.66,-38.4 1.4004,-6.072 3.7121,-16.224 5.1372,-22.56 8.9309,-39.7089 14.1347,-60.5266 20.1976,-80.8 3.1516,-10.5385 14.2546,-43.7519 22.67845,-67.84 22.5156,-64.3843 28.2016,-82.5955 34.5232,-110.5702 1.7431,-7.7136 5.0979,-24.4443 6.1822,-30.8314 l 0.6856,-4.0384 v -5.92 -5.92 l -0.6658,-3.1118 c -1.1238,-5.2524 -2.8188,-8.1295 -5.648,-9.5871 l -1.2478,-0.6428 -2.1364,-0.013 c -3.4743,-0.022 -7.6214,1.6637 -12.2212,4.9669 -3.2234,2.3149 -13.719,11.2192 -18.9764,16.0993 -8.84275,8.208 -19.05885,20.077 -31.09735,36.1289 -7.9901,10.6537 -32.2226,43.8939 -43.1574,59.2 -41.3067,57.8188 -67.6112,100.114 -89.4581,143.84 -16.3923,32.8088 -29.501,65.2628 -38.9044,96.3174 -4.7458,15.6731 -6.7888,25.5272 -7.3481,35.4426 l -0.2211,3.92 h -28.912 -28.912 v -0.3199 c 0,-0.176 1.8144,-5.468 4.0321,-11.76 4.7767,-13.553 15.6127,-45.9741 20.5617,-61.5201 12.0037,-37.707 20.506,-66.0049 43.3619,-144.32 6.6004,-22.616 14.8795,-50.84 18.398,-62.72 7.1126,-24.0156 9.0319,-30.8645 10.9131,-38.9434 2.9438,-12.6421 4.5802,-23.3592 5.1395,-33.6613 l 0.3259,-6.0019 -0.3308,-5.2567 c -1.4268,-22.6743 -9.634,-38.5099 -26.1373,-50.4312 -3.5789,-2.5853 -11.9164,-6.7271 -16.9041,-8.3975 -20.7955,-6.9645 -46.4155,-7.5783 -68.32,-1.6369 -21.9022,5.9408 -39.5664,15.5074 -52.073,28.2019 -6.4746,6.5718 -10.9186,12.867 -14.9993,21.247 -3.8429,7.8918 -6.529,16.2751 -7.996,24.9555 l -0.54,3.1955 0.1824,4.4845 c 0.2108,5.183 1.0628,10.4909 2.7745,17.2845 6.0326,23.9446 18.4947,35.1018 44.6649,39.9883 5.4739,1.0221 12.0417,1.5724 15.8265,1.3261 1.672,-0.1088 9.088,-1.1275 16.48,-2.2637 l 13.44,-2.0659 7.8399,-2.2525 c 4.3119,-1.2388 7.9686,-2.2095 8.1259,-2.157 0.422,0.1406 -4.951,5.6836 -7.8669,8.1156 -6.085,5.0754 -16.6213,11.0293 -25.0589,14.1605 -7.6043,2.8219 -15.4384,4.7332 -23.0512,5.6237 -4.7374,0.5542 -13.35,0.6315 -17.5888,0.1578 -26.4394,-2.9544 -47.8509,-21.2911 -56.9747,-48.7929 -7.3314,-22.0991 -4.9546,-49.1185 6.1474,-69.8831 10.6262,-19.8746 25.0447,-35.6558 43.6981,-47.828 5.9722,-3.8971 9.1928,-5.7045 16.3034,-9.1491 14.6606,-7.1022 30.9287,-12.1712 44.9058,-13.9923 l 4.48,-0.5837 h 11.36 11.36 l 4,0.415 c 14.6897,1.524 26.9194,4.165 41.1237,8.8803 21.7475,7.2195 37.8271,16.5544 49.9298,28.9863 6.4058,6.58 10.9323,12.9541 14.8552,20.9184 3.5168,7.1398 5.2482,12.8143 6.2463,20.4716 l 0.4995,3.8317 v 6.9168 c 0,12.4439 -1.4105,22.1621 -6.2664,43.2239 -2.4481,10.6183 -3.894,17.4499 -8.1518,38.516 -4.56,22.5616 -5.5656,26.6774 -15.6459,64.0369 -4.946,18.3244 -8.9913,33.5048 -8.9913,33.7343 0,0.2295 0.3281,-0.2191 0.729,-0.9969 0.7583,-1.471 29.6118,-47.6045 35.2083,-56.2943 4.1281,-6.4095 10.5192,-15.8333 17.1447,-25.28 7.7608,-11.0652 11.7105,-16.5106 34.1196,-47.04 11.4686,-15.6243 15.9247,-21.8127 24.3095,-33.76 18.3648,-26.1673 25.3169,-34.1866 39.52895,-45.5969 19.5071,-15.6614 31.57,-22.9196 47.04,-28.3035 8.6619,-3.0145 15.9928,-4.3666 23.68,-4.3674 4.6459,-3e-4 6.6433,0.2373 9.9032,1.179 8.9201,2.5765 14.5693,10.6393 17.0225,24.2949 l 0.7463,4.1539 v 10.08 10.08 l -0.5621,4.64 c -1.6784,13.8555 -6.7184,37.972 -14.3111,68.48 -9.0012,36.1678 -15.2139,56.8522 -30.3716,101.12 -5.8155,16.984 -10.5372,30.9919 -10.4927,31.1286 0.044,0.1367 4.0316,-5.9833 8.8603,-13.6 31.2718,-49.328 62.0378,-95.0662 92.2938,-137.2086 24.6785,-34.3736 34.6273,-46.9745 45.3599,-57.4516 5.4266,-5.2975 8.4178,-7.8206 16.2507,-13.7079 18.7877,-14.1212 35.5154,-22.6894 48.8305,-25.0119 4.0256,-0.7022 10.3752,-0.7304 13.4585,-0.06 5.3204,1.1571 9.3165,3.3164 13.137,7.0986 6.0657,6.0049 9.5798,14.3598 10.3618,24.6357 l 0.291,3.823 -0.3051,4.337 c -0.8049,11.4423 -3.6267,21.8653 -11.8299,43.697 -25.062,66.6985 -49.5223,146.8728 -66.6961,218.6121 -4.6787,19.5438 -7.1509,33.9395 -8.7015,50.6678 l -0.5487,5.92 -0.014,10.24 -0.013,10.24 0.5693,4.64 c 1.7962,14.6379 5.5612,24.0772 12.0317,30.1641 l 2.5279,2.3782 2.5142,1.308 c 3.4656,1.803 6.6001,2.627 10.8167,2.8436 l 3.52,0.1808 3.0078,-0.5256 c 9.4127,-1.6446 20.5202,-7.7561 32.8322,-18.0648 4.4189,-3.6999 13.0127,-12.4677 17.4508,-17.8043 3.5836,-4.309 6.1721,-7.6436 18.3299,-23.614 3.8323,-5.0341 6.2083,-8.7063 8.2133,-12.6942 l 1.3306,-2.6464 3.7931,-19.8826 c 2.0862,-10.9355 4.7343,-24.0588 5.8847,-29.1628 1.1503,-5.104 3.5269,-15.976 5.2812,-24.16 4.2154,-19.665 6.9048,-31.5981 9.454,-41.9478 1.1525,-4.6794 3.1107,-13.1034 4.3516,-18.72 5.3159,-24.0624 8.8361,-34.7753 13.9135,-42.343 1.7188,-2.5619 5.5287,-6.3408 8.4773,-8.4084 10.8384,-7.6002 28.7957,-13.0006 50.88,-15.3015 6.5544,-0.6829 20.48,-1.2358 20.48,-0.8132 0,0.1358 -1.5989,4.4355 -3.5531,9.5549 -18.9057,49.5275 -30.7757,85.9791 -39.9638,122.7245 -5.8414,23.3613 -8.3872,36.3652 -9.3141,47.5745 -0.4601,5.5652 -0.2033,14.9617 0.5204,19.04 2.3789,13.4065 9.3592,21.189 20.6475,23.0205 9.7272,1.5782 22.5777,-3.2897 37.0457,-14.0333 8.5791,-6.3707 15.2469,-12.4186 29.3731,-26.6426 9.4738,-9.5393 14.0761,-14.763 16.3483,-18.5553 0.9412,-1.5708 33.0289,-88.4911 35.7162,-96.7493 0.63,-1.936 2.5341,-8.056 4.2314,-13.6 5.2908,-17.2823 9.0045,-26.6356 12.4057,-31.2451 l 1.45,-1.9652 3.2386,-2.156 c 8.8525,-5.8933 20.6195,-9.0869 38.254,-10.382 4.2005,-0.3085 24.8,-0.4799 24.8,-0.2063 0,0.069 -1.3817,3.9929 -3.0706,8.72 -16.4501,46.043 -29.768,92.6396 -39.4523,138.0346 -2.1244,9.9581 -3.0715,15.1914 -3.7644,20.8 l -0.5733,4.64 -0.01,9.76 -0.01,9.76 0.5718,3.6047 c 0.7797,4.9158 1.8839,8.6374 3.6066,12.1552 l 1.4494,2.9599 1.7253,1.7672 1.7253,1.7672 2.0208,0.9387 2.0208,0.9387 2.5893,0.3189 2.5893,0.3189 3.1707,-0.3182 c 11.4039,-1.1443 27.2803,-7.852 41.8907,-17.6986 9.7884,-6.5968 27.8186,-20.7601 37.8043,-29.6965 28.2232,-25.2576 53.8611,-56.2478 78.8375,-95.2961 1.6323,-2.552 8.4276,-14.3333 15.1006,-26.1808 l 12.1328,-21.5408 5.6156,-11.2592 c 3.0886,-6.1925 5.6521,-11.2986 5.6967,-11.3467 0.068,-0.073 72.0626,-6.143 72.9483,-6.1501 0.1627,0 0,0.3216 -0.3655,0.7176 -1.1911,1.297 -7.4909,13.3601 -8.4337,16.1493 -1.1951,3.5357 -2.3723,8.8387 -3.0746,13.8507 l -0.5605,4 v 8.8 8.8 l 0.5731,4.1092 c 0.6559,4.702 2.0033,10.4752 3.2609,13.9708 1.8907,5.256 4.0152,8.705 12.3643,20.0723 13.7263,18.6885 19.0951,28.9105 21.419,40.7809 l 0.7101,3.6268 v 4.64 4.64 l -0.7125,4 c -1.669,9.3708 -4.5517,19.5874 -7.9456,28.16 -5.5684,14.0657 -12.6614,26.0347 -25.7339,43.4244 -10.98,14.6061 -12.5245,16.2756 -25.3286,27.3782 l -7.9238,6.8709 -6.3848,4.4433 c -3.5116,2.4438 -6.3432,4.5872 -6.2925,4.7632 0.051,0.176 9.0095,4.8895 19.9085,10.4743 l 19.8164,10.1543 303.2611,0.01 c 166.7936,0 303.3241,-0.1023 303.401,-0.2343 0.077,-0.132 -1.0617,-7.008 -2.5304,-15.28 -1.4686,-8.272 -5.6233,-32.896 -9.2327,-54.72 l -6.5624,-39.68 -1.6106,-20.48 -1.6107,-20.48 -1.9596,-15.04 -1.9597,-15.04 -0.4024,-16.64 -0.4023,-16.64 -0.6595,-4.8 c -1.1901,-8.6609 -1.6896,-15.5299 -1.8735,-25.76 l -0.1811,-10.08 0.377,-5.6 c 0.2074,-3.08 0.6456,-7.76 0.9736,-10.4 l 0.5965,-4.8 0.2081,-9.92 0.208,-9.92 2.7075,-25.9124 2.7075,-25.9123 3.3635,-17.1277 c 15.6928,-79.9107 20.8942,-101.445 32.9287,-136.3276 10.9344,-31.6939 30.6735,-79.0139 42.3149,-101.439998 13.5392,-26.0822 26.029,-43.8602 42.1666,-60.0201 12.8145,-12.8321 24.2629,-21.3359 37.4509,-27.8182996 8.3568,-4.1076 14.9556,-6.42720003 21.9783,-7.72570003 l 2.9817,-0.55129997 4.8,-0.01 4.8,-0.01 6.7272,1.17539997 c 3.7,0.6464 8.164,1.46970003 9.92,1.82940003 21.4932,4.4036 33.6769,12.5344996 51.5006,34.3692996 1.566,1.9184 4.853,5.7344 7.3046,8.48 7.2846,8.1584 11.1318,13.4794 17.0287,23.552 8.7822,15.0014 15.4971,30.1247 29.1273,65.599998 11.1789,29.0955 17.7481,53.5867 29.4408,109.76 l 3.397,16.32 4.2793,28.96 4.2793,28.96 1.4689,21.44 c 0.8079,11.792 1.7433,23.312 2.0786,25.6 1.6864,11.5065 2.8485,27.8196 3.1527,44.2557 0.4606,24.8862 -0.5111,46.3757 -2.8461,62.9443 -0.3472,2.464 -1.2781,13.192 -2.0686,23.84 l -1.4374,19.36 -1.1079,6.24 c -0.6094,3.432 -2.2689,12.936 -3.6879,21.12 -5.3978,31.1325 -8.1104,44.6866 -11.7199,58.56 -0.8014,3.08 -5.2673,18.539 -9.9243,34.3533 l -8.4672,28.7532 -5.5829,16.1386 c -3.0705,8.8762 -5.5828,16.2773 -5.5828,16.4468 v 0.3082 l 940.24,-0.08 940.2399,-0.08 0.08,-297.04 0.08,-297.04 h 15.9606 15.9603 l 0.1987,47.76 c 0.1092,26.268 0.3527,159.792 0.5412,296.72 0.1888,136.928 0.4006,249.14 0.471,249.36 l 0.1277,0.4 h 590.2502 590.2499 v 631.04003 631.04 H 4387.4177 2976.597 l -2.3643,2.9527 c -6.912,8.6324 -17.3699,19.177 -26.8762,27.0988 -6.6666,5.5556 -6.0754,5.0304 -16.48,14.639 -9.6969,8.9552 -12.124,11.0263 -19.0379,16.2456 -30.1258,22.742 -61.0935,40.6583 -95.84,55.4479 -23.3407,9.9348 -40.4524,15.7637 -55.2,18.8032 -4.1162,0.8484 -11.6387,2.0927 -12.651,2.0927 -0.082,0 -0.149,0.4105 -0.149,0.9122 0,0.5017 4.5375,24.0097 10.0833,52.24 l 10.0833,51.3278 2.5742,22.24 2.5742,22.24 0.4543,12.96 c 0.2499,7.128 0.6101,14.4 0.8004,16.16 0.4283,3.9596 0.423,14.476 -0.01,17.92 -0.1766,1.408 -0.6746,7.384 -1.1067,13.28 l -0.7855,10.72 -1.2633,6.4 c -3.6646,18.5654 -6.1239,27.2277 -12.3415,43.4694 -8.7866,22.9522 -12.0775,30.2114 -18.6648,41.1706 -26.6144,44.2786 -62.0932,77.4195 -105.1989,98.2665 -19.7813,9.5668 -38.839,16.0571 -58.56,19.9434 -7.6623,1.5099 -36.3157,6.475 -41.76,7.2362 -13.8609,1.938 -31.9191,2.6315 -49.12,1.8865 z m 258.72,-482.7125 c 8.2961,-0.9586 17.7894,-3.1355 31.84,-7.3012 35.8021,-10.6146 65.8671,-24.4446 94.9591,-43.6817 11.7046,-7.7396 29.4433,-20.6282 37.1155,-26.9674 4.0271,-3.3275 14.9654,-14.0331 14.9654,-14.6472 v -0.3426 h -101.48 -101.48 l 0.1703,0.88 c 0.094,0.484 4.2481,21.508 9.232,46.72 l 9.0617,45.84 h 0.648 c 0.3564,-2e-4 2.592,-0.225 4.968,-0.4995 z m -547.9733,-128.6758 190.6933,-0.2158 -2.56,-0.4315 c -5.1636,-0.8702 -7.2932,-1.547 -25.76,-8.187 -35.1847,-12.6511 -43.9135,-16.5887 -70.56,-31.8302 -20.5562,-11.758 -25.9296,-15.2017 -38.5759,-24.7228 -39.687,-29.8793 -75.3351,-69.1078 -105.632,-116.2417 -24.6413,-38.3352 -30.2542,-47.6339 -35.955,-59.5657 -2.7488,-5.7532 -5.0976,-11.5026 -6.7117,-16.4296 l -1.1795,-3.6 H 1226.2623 352.25875 l -0.2081,4.08 c -0.1144,2.244 -0.2087,61.068 -0.2094,130.72 v 126.64 H 1178.828 c 454.8427,0 912.7987,-0.097 1017.68,-0.2157 z m 464.1411,-0.024 c 0.029,-0.8873 -1.8124,-10 -2.0207,-10 -0.1429,0 -7.6624,1.657 -16.7101,3.6822 l -16.4504,3.6822 -8.7333,1.4076 -8.7333,1.4075 26.32,0.03 c 14.476,0.017 26.3235,-0.078 26.3278,-0.2098 z m 299.495,-3.7538 c 3.2143,-4.3813 8.3763,-10.9151 18.0381,-22.8314 14.9931,-18.4916 23.1676,-30.8122 37.4037,-56.3748 17.7799,-31.9262 35.0134,-70.8851 46.4369,-104.9775 5.3089,-15.8441 12.5885,-43.9795 15.8923,-61.4225 1.0833,-5.72 2.0475,-10.724 2.1426,-11.12 l 0.173,-0.72 h -74.3807 -74.3807 l -4.4216,15.28 c -4.8216,16.6621 -6.9677,22.9867 -12.5685,37.04 -7.876,19.7619 -15.2419,33.836 -26.8336,51.2708 -34.2014,51.4415 -82.4167,92.2167 -139.8043,118.2309 -5.608,2.5421 -10.5116,4.4213 -21.12,8.0938 -11.8659,4.1079 -18.08,6.5151 -18.08,7.004 0,0.4407 4.4499,23.5615 4.6422,24.1205 l 0.1377,0.4 h 121.8965 121.8965 z m 225.9372,3.8436 c 0,-0.082 -0.7638,-0.6387 -1.6974,-1.2359 -6.814,-4.3589 -11.5577,-17.9811 -13.0566,-37.4939 l -0.3687,-4.8 0.1829,-9.12 c 0.211,-10.5174 0.3893,-12.0611 3.2656,-28.2712 9.795,-55.204 17.727,-86.0566 29.5059,-114.7688 1.4803,-3.608 3.8889,-9.584 5.3526,-13.28 3.2458,-8.1961 6.1549,-15.0113 7.8979,-18.5027 1.3994,-2.8032 4.6458,-7.8973 5.0327,-7.8973 0.1289,0 2.7478,0.2356 5.8198,0.5236 l 5.5853,0.5235 9.12,0.023 9.12,0.023 3.2,-0.4116 c 4.6851,-0.6026 9.4038,-1.5523 12.1216,-2.4394 1.3139,-0.4289 5.3859,-2.3586 9.0496,-4.2883 3.6637,-1.9297 6.6982,-3.4712 6.744,-3.4255 0.046,0.046 -1.1248,3.5274 -2.601,7.7372 -11.5725,33.0014 -23.192,74.2446 -33.2598,118.0542 -3.9821,17.3273 -4.1904,18.5775 -5.3386,32 -0.7091,8.2879 -1.4736,15.4023 -1.9017,17.6941 -0.1485,0.7939 -0.1316,4.1637 0.037,7.5499 l 0.3053,6.116 0.8144,4.16 c 3.0697,15.6819 8.5366,23.9537 17.2288,26.0688 2.2073,0.5372 7.5184,0.4659 10.3728,-0.1392 11.4621,-2.4299 29.4189,-12.5151 46.3161,-26.013 4.8356,-3.8628 14.1492,-12.737 15.865,-15.1166 l 0.8077,-1.12 0.3737,-9.28 c 0.6253,-15.5224 1.8948,-29.4396 3.8528,-42.24 0.5114,-3.344 1.8864,-13.856 3.0554,-23.36 l 2.1254,-17.28 2.7095,-13.44 c 6.296,-31.2331 10.8915,-49.6255 16.4889,-65.993 2.1044,-6.1528 5.7831,-15.6461 7.7533,-20.007 l 0.8314,-1.84 H 3242.57 3116.3485 l -0.1619,1.04 c -0.089,0.572 -0.3885,2.84 -0.6656,5.04 -2.8995,23.0256 -10.4032,52.4476 -22.5483,88.4117 -18.3485,54.3342 -44.3239,104.3392 -84.769,163.1883 l -2.5841,3.76 h 90.2299 c 49.6265,0 90.23,-0.068 90.23,-0.1502 z m 167.9619,-2.6498 c -1.5094,-1.54 -3.1469,-3.52 -3.639,-4.4 -0.4919,-0.88 -2.226,-3.472 -3.8535,-5.76 -3.5901,-5.0471 -3.9411,-5.7492 -8.3152,-16.64 -1.9088,-4.752 -3.5161,-8.6998 -3.5721,-8.773 -0.056,-0.073 -1.7936,1.5157 -3.8618,3.5309 -13.0157,12.6817 -38.4851,29.4822 -51.4403,33.9317 l -2.56,0.8792 39.9933,0.016 39.9932,0.016 -2.7446,-2.8 z m 227.8061,2.08 c -0.2589,-0.396 -1.3107,-1.2814 -2.3379,-1.9676 -2.6576,-1.7756 -5.7607,-4.9928 -8.8698,-9.1968 -5.4726,-7.3996 -8.8029,-13.6281 -11.4806,-21.4729 -0.946,-2.7705 -1.848,-5.0385 -2.0048,-5.04 -0.3524,0 -18.4448,10.7268 -30.1149,17.86 -17.5011,10.6973 -26.6055,15.5702 -35.1056,18.7891 l -4.5744,1.7323 47.479,0.01 47.4791,0.01 -0.4701,-0.72 z m 205.6173,-2.24 c 0.111,-1.628 0.6364,-6.488 1.1676,-10.8 1.6346,-13.2668 1.937,-20.1908 0.9514,-21.7852 l -0.2781,-0.4502 -1.2131,1.1475 c -1.6141,1.5266 -10.9216,8.5972 -17.2493,13.1035 -15.0118,10.6908 -25.3725,16.8691 -34.0438,20.3016 -1.672,0.6618 -3.0999,1.2572 -3.1735,1.3231 -0.073,0.066 11.9652,0.1197 26.752,0.1197 h 26.8848 z m 153.9167,2.24 c -0.614,-0.6811 -3.5388,-5.5546 -4.7212,-7.8676 -0.8567,-1.6757 -1.4208,-4.9185 -1.7834,-10.2489 l -0.3341,-4.9166 0.3322,-6.7634 c 0.623,-12.6743 1.912,-21.5648 4.7926,-33.0542 3.6307,-14.48 7.8659,-25.8803 18.6007,-50.0684 11.2054,-25.2493 16.3817,-37.4943 18.5155,-43.8009 2.3824,-7.0418 3.8499,-14.1442 3.8537,-18.6535 0,-4.225 -1.702,-9.8525 -3.1113,-10.265 -8.8883,-2.6011 -20.2727,0.8887 -32.5187,9.9683 -4.2724,3.1677 -7.1642,5.5706 -14.1412,11.7502 -3.1792,2.816 -7.5011,6.5825 -9.6038,8.37 -10.439,8.8742 -21.7632,22.0092 -34.8563,40.43 -1.5639,2.2 -4.881,6.664 -7.3719,9.92 -5.5878,7.3047 -6.7846,9.0754 -8.6528,12.8017 -2.7472,5.4788 -3.6377,11.2853 -3.6806,23.9983 -0.013,3.432 -0.1542,7.32 -0.3174,8.64 -0.2976,2.4126 -1.5418,46.4863 -1.5693,55.6 l -0.016,4.88 h 38.6157 38.616 l -0.6496,-0.72 z m 199.2404,0.4359 6.5424,-0.1959 -6.4016,-6.4 c -11.1152,-11.1122 -12.7191,-13.9234 -15.2989,-26.8108 -1.4371,-7.1788 -2.6835,-11.3397 -3.352,-11.1884 -0.4576,0.1035 -27.1536,16.5321 -30.7523,18.9249 -1.496,0.9946 -7.112,4.775 -12.48,8.4007 -13.8727,9.3702 -19.088,12.415 -29.12,17.0007 l -1.12,0.512 42.72,-0.024 c 23.496,-0.013 45.664,-0.1118 49.2624,-0.2195 z m 1499.5375,-130.4359 v -130.7201 l -1066.9152,0.08 -1066.9148,0.08 -1.6806,4.8 c -5.2058,14.868 -14.0298,30.1365 -32.6407,56.48 -28.0953,39.7684 -35.9667,50.2866 -58.9856,78.8202 -9.2051,11.4106 -16.8681,21.0924 -17.0288,21.5151 -0.1606,0.4227 -0.4611,2.382 -0.6675,4.354 l -0.3757,3.5854 0.1891,11.3826 c 0.2176,13.1195 0.4093,15.3903 2.1639,25.6227 2.2483,13.1117 3.7241,18.641 6.4048,23.9955 3.6781,7.3474 9.3462,12.2587 16.0445,13.9026 9.8352,2.4137 26.7641,0.8426 48.3158,-4.4838 27.5731,-6.8147 47.1536,-15.5642 78.8608,-35.2392 l 7.4099,-4.598 0.2023,-3.4286 c 0.8518,-14.4463 3.0649,-28.1725 7.2604,-45.0285 10.328,-41.4961 23.64,-69.6174 43.4884,-91.8677 14.3075,-16.0388 37.0041,-32.3477 54.8691,-39.4267 19.6253,-7.7765 41.5104,-10.0567 58.72,-6.1178 7.0825,1.6211 14.6717,4.8192 20.48,8.6306 l 3.04,1.9949 4.0233,4.0334 4.0237,4.0333 2.3066,3.5045 c 11.2768,17.1342 13.6595,39.2335 6.2269,57.7531 -2.5005,6.2301 -7.8359,14.963 -13.4058,21.9424 -3.5888,4.4972 -13.9258,14.8488 -18.6947,18.7216 -18.3655,14.9141 -39.1971,26.8242 -80.56,46.0589 l -20.88,9.7096 v 0.515 c 0,0.2832 0.2121,1.9092 0.4688,3.6132 1.9603,13.0036 7.7645,24.3323 17.0451,33.2688 9.5581,9.2037 21.583,14.937 35.9242,17.128 l 3.68,0.5622 6.72,-0.01 6.72,-0.01 3.84,-0.5542 c 5.262,-0.7596 10.1536,-1.8812 16.9715,-3.8917 23.7635,-7.0076 45.8035,-18.9689 68.896,-37.3908 l 3.6272,-2.8937 0.5792,-1.1354 c 0.9091,-1.7817 1.2259,-3.3299 1.7712,-8.6517 l 0.5081,-4.96 3.9879,-20.32 3.9878,-20.32 5.9027,-23.68 c 8.0839,-32.4282 13.5511,-52.2482 18.096,-65.6 0.8986,-2.64 4.2371,-11.352 7.4189,-19.36 3.1818,-8.008 6.728,-17.3952 7.8803,-20.8605 l 2.0951,-6.3005 2.0992,-0.5017 c 3.6505,-0.8725 6.4163,-1.1246 12.3388,-1.1246 11.3623,-10e-5 23.2071,1.7413 44.5783,6.5536 2.7619,0.6219 5.1977,1.1928 5.4128,1.2687 l 0.391,0.1381 -1.1382,3.1334 c -6.8743,18.9261 -15.7018,49.7119 -20.9469,73.0535 -1.9181,8.536 -3.5661,15.8499 -3.6618,16.2531 l -0.174,0.733 0.9516,-0.4921 c 1.8829,-0.9737 4.7552,-3.6782 7.8711,-7.4119 1.7453,-2.0912 4.1862,-5.0157 5.4246,-6.4991 1.2384,-1.4833 5.5482,-6.3793 9.5773,-10.88 4.0294,-4.5006 8.9254,-10.1166 10.88,-12.4798 13.6554,-16.5086 23.873,-26.0373 38.4288,-35.838 17.4544,-11.7524 38.8675,-20.8002 59.0454,-24.9486 15.6202,-3.2114 28.3668,-2.4123 36.32,2.2768 8.5556,5.0442 13.6311,16.0449 15.2205,32.9881 l 0.3847,4.1015 -0.169,7.4185 -0.169,7.4185 -0.6905,4.7621 c -2.1187,14.6105 -6.1936,25 -21.8611,55.7411 -2.8772,5.6447 -6.0656,12.116 -7.0858,14.3807 -5.8387,12.9604 -10.5469,27.2143 -17.5981,53.2761 -4.2531,15.7198 -5.9011,26.0065 -5.536,34.5571 l 0.1843,4.3229 0.6122,2.2764 c 0.3363,1.252 0.9574,2.9015 1.3798,3.6656 2.4836,4.492 10.3274,5.5519 22.048,2.9792 7.5447,-1.656 14.6909,-4.5318 22.56,-9.0788 5.1757,-2.9906 24.4784,-15.2657 38.4,-24.4194 6.688,-4.3974 15.272,-10.0256 19.0752,-12.5069 l 6.9156,-4.5116 0.1872,-11.0422 c 0.3785,-22.3283 2.7129,-38.993 8.0684,-57.6023 4.6784,-16.2567 10.7405,-29.6267 21.8877,-48.2722 10.3207,-17.263 16.3479,-25.4143 25.5933,-34.611 13.1488,-13.0799 25.791,-20.6691 42.3312,-25.4112 9.6522,-2.7674 17.0957,-3.9587 26.5213,-4.245 l 6.2598,-0.19 3.6602,0.3791 c 18.2989,1.8956 30.1619,9.407 37.1942,23.5503 7.8653,15.8186 7.8723,38.2774 0.019,58.08 -8.9533,22.5741 -25.639,42.9407 -50.0893,61.1391 -12.5484,9.34 -26.632,17.8628 -45.303,27.4154 l -8.4,4.2977 v 1.1739 c 0,2.0565 1.2397,9.6807 2.2147,13.6539 6.6851,27.2446 25.0039,43.8155 51.8451,46.8981 l 3.3418,0.3838 7.6982,-0.1729 7.6986,-0.1729 4.2006,-0.6476 c 8.457,-1.3036 20.7319,-4.4107 27.225,-6.8913 11.1152,-4.2463 23.4854,-12.9413 35.1942,-24.7385 6.1242,-6.1704 9.8628,-10.7166 19.7328,-23.9964 l 8.3674,-11.2577 0.208,1.1777 c 0.1146,0.6477 0.369,5.2097 0.5661,10.1377 l 0.3577,8.96 -0.327,4.8 c -0.3517,5.1608 -0.4432,5.8938 -1.1494,9.1955 -1.0477,4.8982 -2.7751,8.0965 -6.1888,11.4573 -2.0964,2.0639 -15.9306,12.8597 -24.3466,18.9991 -11.6851,8.5242 -21.8579,14.4366 -29.76,17.2961 l -3.04,1.1 672.88,0.016 672.8799,0.016 v -130.72 z m 103.28,-464.88 -0.08,-595.59993 h -37.12 -37.12 l -0.08,595.59993 -0.08,595.6 h 37.2803 37.2803 z m -3208.8799,578.6367 c 25.9552,-0.8723 51.5272,-3.6852 75.7544,-8.3332 2.7751,-0.5324 9.2216,-1.4697 14.3256,-2.083 10.6665,-1.2815 14.2113,-1.8164 18.24,-2.7523 5.3341,-1.2391 9.8662,-3.2334 10.7906,-4.7482 l 0.2929,-0.48 -22.7416,-112.32 c -12.5078,-61.776 -22.8199,-112.6581 -22.9156,-113.0713 l -0.1742,-0.7514 -91.746,0.2312 c -50.4604,0.1271 -91.7869,0.2661 -91.8369,0.3088 -0.1742,0.149 5.1082,11.2499 8.2242,17.2827 10.6339,20.5888 20.8071,34.8048 34.4655,48.162 7.7245,7.5542 15.2268,13.388 25.0811,19.503 9.7121,6.0268 17.0332,9.5253 26.5303,12.6779 3.4483,1.1447 7.3497,2.6095 8.6697,3.2551 l 2.4,1.1737 2.1309,2.112 2.131,2.112 0.3823,1.4198 c 0.5533,2.0547 0.2494,4.2023 -0.8466,5.9828 -2.498,4.0582 -10.074,6.5252 -17.7577,5.7824 -5.1435,-0.4972 -17.8946,-3.3791 -26.6503,-6.0233 -25.8529,-7.8075 -56.5901,-24.3385 -80.106,-43.0823 -13.3451,-10.6371 -22.8478,-20.1399 -33.4562,-33.4566 -10.4465,-13.1136 -15.3932,-20.1355 -21.6544,-30.7385 l -3.921,-6.64 h -90.0802 -90.0803 l 0.1547,0.4 c 0.6721,1.7389 11.1803,27.0168 12.8037,30.8 8.9149,20.775 15.9661,33.9713 27.2721,51.04 13.3358,20.1332 26.5551,36.3097 43.8291,53.6341 17.6633,17.7147 33.2684,30.5391 54.0889,44.4506 34.8868,23.31 75.5052,41.4265 119.1387,53.1379 11.4568,3.075 14.403,3.6091 30.7739,5.5786 5.8919,0.7088 13.3799,1.7114 16.64,2.2281 18.4937,2.9307 37.6046,3.9549 59.8474,3.2074 z m 173.0138,-36.599 c 27.4304,-12.6053 50.2429,-28.1024 69.9808,-47.5398 22.2085,-21.8704 37.3244,-44.3431 50.2965,-74.7753 9.8865,-23.1936 15.7332,-44.7229 17.8915,-65.8826 0.4969,-4.8713 1.2701,-19.334 1.0456,-19.5585 -0.068,-0.067 -42.0247,-0.086 -93.2385,-0.042 l -93.1158,0.081 21.2979,104.88 c 11.7139,57.684 21.3204,104.88 21.3479,104.88 0.028,0 2.0497,-0.919 4.4941,-2.0423 z m 931.1462,-50.1426 c 35.8195,-20.9832 56.1325,-47.4371 60.1811,-78.3751 l 0.5232,-4 -0.1686,-6.72 -0.1687,-6.72 -0.5097,-2.24 c -2.1399,-9.4005 -6.0132,-15.0166 -12.4973,-18.1208 l -2.56,-1.2255 -3.0202,-0.5143 c -1.6611,-0.2828 -3.6051,-0.4465 -4.32,-0.3638 -1.7881,0.2069 -12.8854,4.1413 -16.0323,5.6839 -6.1184,2.9993 -13.0778,10.1743 -18.4973,19.0699 -12.9245,21.2148 -21.4797,57.6777 -22.5017,95.9038 l -0.2128,7.9533 7.6521,-3.8535 c 4.2087,-2.1195 9.6682,-5.0345 12.1322,-6.4779 z m 553.7334,-2.0974 c 14.495,-7.5863 25.761,-15.8769 36.5235,-26.8777 12.5482,-12.8262 21.281,-26.9661 26.5565,-43 2.5654,-7.7973 3.8282,-15.2424 3.8246,-22.5504 0,-9.3361 -2.2089,-16.3101 -6.6406,-21.0095 l -2.0029,-2.1236 -2.1571,-1.1274 c -2.7043,-1.4133 -4.9098,-2.0673 -7.8768,-2.3362 l -2.3216,-0.2103 -7.136,2.3171 -7.136,2.3171 -2.8618,1.9142 c -13.3561,8.9339 -23.3667,28.4489 -28.8649,56.2713 -2.5971,13.1416 -4.4387,30.5513 -4.8384,45.7377 -0.095,3.608 -0.2467,8.036 -0.3373,9.84 l -0.1648,3.28 h 0.3837 c 0.2109,0 2.4832,-1.099 5.0499,-2.4423 z m -787.4921,-38.1859 c 4.0057,-4.0181 8.5696,-9.6652 13.5337,-16.7462 17.5507,-25.035 21.1626,-30.2872 27.0019,-39.2656 11.7501,-18.0667 22.1357,-36.2933 30.3588,-53.28 1.7891,-3.696 3.3552,-7.044 3.4803,-7.44 l 0.2272,-0.72 h -30.3843 -30.3844 l -0.1548,0.72 c -5.9834,27.7774 -12.2983,64.4718 -15.9012,92.4 -1.0748,8.332 -3.2185,27.2607 -3.2185,28.4218 v 0.7418 l 1.04,-0.73 c 0.5721,-0.4015 2.5526,-2.2473 4.4013,-4.1018 z M 2085.5999,1626.2009 c 0,-0.1095 -1.6436,-4.6095 -3.6524,-10 -10.8204,-29.0358 -18.1979,-51.7328 -22.9401,-70.5754 -2.5337,-10.0677 -3.6238,-16.0034 -6.2048,-33.7856 -0.8047,-5.544 -2.0276,-13.464 -2.7176,-17.6 -1.5176,-9.0965 -2.0741,-13.3571 -2.7586,-21.12 l -0.522,-5.92 -0.1469,-20.8 -0.1468,-20.8 0.9922,-13.12 0.9922,-13.12 3.7853,-26.72 c 2.082,-14.696 3.7261,-26.828 3.6536,-26.96 -0.073,-0.132 -383.3566,-0.24 -851.7423,-0.24 H 352.58115 l -0.2097,6 c -0.1153,3.3 -0.2101,66.516 -0.2106,140.48 v 134.48 h 866.72005 c 476.6959,0 866.7199,-0.09 866.7199,-0.199 z m 248.32,-0.083 c 0,-0.1549 -0.652,-2.1196 -1.4489,-4.366 -8.5391,-24.0713 -14.6414,-56.8103 -15.3897,-82.5664 l -0.2041,-7.026 0.3756,-5.76 c 0.2067,-3.168 0.5836,-7.344 0.8376,-9.28 0.2539,-1.936 0.6849,-8.56 0.9576,-14.72 l 0.4959,-11.2 4.3045,-24 4.3046,-24 1.8877,-6.56 c 8.3826,-29.1323 21.2779,-56.8947 40.1774,-86.4984 1.508,-2.3621 2.7418,-4.3863 2.7418,-4.4981 0,-0.1119 -41.16,-0.2035 -91.4668,-0.2035 h -91.4667 l -3.2334,7.44 c -6.5086,14.9767 -12.1646,29.3031 -16.4549,41.68 -6.4746,18.6781 -8.9167,28.3243 -14.6229,57.76 l -2.5744,13.28 -1.7704,17.5933 -1.7705,17.5932 v 4.8201 c 0,2.651 -0.2126,6.47 -0.4725,8.4867 -1.1252,8.7322 -1.4435,21.1126 -0.8019,31.1922 0.3816,5.9943 1.3986,15.7381 2.0703,19.8345 0.2597,1.584 0.7615,7.128 1.115,12.32 l 0.6428,9.44 3.9199,19.76 3.9199,19.76 h 86.9633 c 49.8646,0 86.9632,-0.1201 86.9632,-0.2816 z m 259.6899,-36.5984 c -4.0864,-20.284 -14.3213,-71.044 -22.744,-112.8 l -15.3141,-75.92 h -0.6747 c -0.371,0 -1.8792,0.4397 -3.3515,0.977 -1.4723,0.5373 -5.2079,1.6985 -8.3013,2.5805 -12.7629,3.6387 -14.1022,4.2104 -25.8632,11.0418 -20.6657,12.0036 -30.0317,18.2797 -41.5211,27.8229 -5.3525,4.4458 -17.9277,17.0205 -22.3788,22.3778 -23.0846,27.7847 -37.7021,60.4498 -45.8954,102.56 -0.702,3.608 -1.4508,8.0719 -1.6641,9.9198 l -0.3878,3.3597 0.1806,6.7203 0.1806,6.7202 0.681,4.48 c 0.9331,6.1381 1.6052,9.5533 3.7314,18.96 l 1.8263,8.08 h 94.4631 94.463 z m 252.7839,36 c -0.083,-0.484 -0.5227,-4.912 -0.978,-9.84 l -0.8277,-8.96 -1.8979,-10.4776 c -3.5971,-19.8579 -5.6162,-28.5538 -9.1581,-39.4424 -24.365,-74.9034 -73.5202,-126.9866 -141.5321,-149.9629 -19.8206,-6.696 -39.6749,-10.6632 -63.04,-12.5965 -6.146,-0.5085 -22.4,-1.0348 -22.4,-0.7252 0,0.1778 45.8434,228.5268 46.4488,231.3646 l 0.3242,1.52 h 96.6055 96.6055 z m 236.6455,-3.36 c 0,-4.9162 -0.4878,-17.0751 -0.9708,-24.24 -4.8005,-71.2119 -26.0412,-134.9452 -63.6155,-190.88 -7.8872,-11.7413 -12.038,-17.1056 -24.3937,-31.5257 -4.3006,-5.0191 -9.3705,-11.0239 -11.2663,-13.3439 -6.3409,-7.7593 -11.267,-12.8692 -15.3032,-15.8741 l -1.1502,-0.8563 h -48.3698 -48.3698 v 0.3035 c 0,0.1669 1.201,2.1469 2.669,4.4 17.6248,27.0519 32.0469,54.1316 42.9733,80.6887 6.2958,15.3021 8.2371,21.6934 14.2266,46.8368 5.9581,25.0115 6.0904,25.6944 8.4479,43.611 0.8105,6.16 1.7494,13 2.0863,15.2 l 0.6127,4 0.3755,10.72 0.3755,10.72 -0.1862,16.48 -0.186,16.48 -1.6172,15.68 c -0.8894,8.624 -1.6172,15.716 -1.6173,15.76 0,0.044 32.6879,0.08 72.6399,0.08 h 72.64 v -4.24 z m 156.5076,4.0096 c 18.5532,-0.1268 33.3731,-0.273 32.9331,-0.3249 -5.2691,-0.6219 -11.5229,-2.2751 -17.3447,-4.5851 -6.4134,-2.545 -17.8137,-8.5084 -24.8288,-12.9879 l -1.9289,-1.2317 16.2781,-25.76 c 8.9529,-14.168 16.392,-25.7278 16.5312,-25.6884 0.1392,0.039 1.9091,0.6378 3.9331,1.3299 18.9609,6.4838 37.0781,5.4583 56.8928,-3.2203 1.6352,-0.7162 3.0137,-1.2479 3.0633,-1.1816 0.05,0.066 -0.022,1.8955 -0.1606,4.065 -1.0534,16.5531 -6.3277,36.1642 -13.2512,49.2688 -2.759,5.2229 -5.1808,8.6349 -8.4582,11.9178 l -3.0461,3.0511 -2.24,1.1491 c -1.232,0.632 -4.184,1.8311 -6.56,2.6648 -2.376,0.8337 -4.3799,1.5716 -4.4535,1.6398 -0.073,0.068 21.9607,0.124 48.9642,0.124 h 49.0973 l 2.9907,-6 c 8.7718,-17.5996 19.2918,-34.4735 37.9549,-60.88 22.8825,-32.3771 29.8531,-40.1525 51.271,-57.1921 8.5709,-6.8186 16.5808,-11.0862 23.9354,-12.7523 l 2.56,-0.5799 3.52,0.012 3.52,0.012 2.1853,0.5315 c 4.9948,1.215 10.1401,4.0546 13.5795,7.494 5.9168,5.9167 9.4179,14.1202 11.1625,26.1551 l 0.5565,3.84 -0.01,8.48 -0.01,8.48 -0.5405,5.12 c -1.1155,10.5716 -3.3478,22.9722 -6.2787,34.88 -1.1846,4.8128 -10.3177,37.453 -11.6867,41.7658 l -0.2013,0.6342 h 1060.3421 1060.3417 l -0.08,-140.4 -0.08,-140.4 -1312.6399,0.1156 c -721.952,0.064 -1312.7035,0.1752 -1312.7812,0.248 -0.078,0.073 0.5885,0.8847 1.4804,1.8043 2.5544,2.6339 15.8099,18.745 19.9314,24.2253 11.5634,15.3757 21.7144,30.6074 30.1417,45.2279 30.5828,53.0581 47.3516,110.896 51.4617,177.4989 0.4248,6.8835 0.9566,22.0544 0.9619,27.44 v 4.24 h 43.627 c 23.9949,0 58.8069,-0.1037 77.3599,-0.2305 z m 259.7276,-13.2896 c 2.4973,-7.436 4.9716,-15.032 5.498,-16.88 2.9564,-10.3766 6.246,-25.5748 8.6566,-39.9935 l 1.3094,-7.8336 0.1956,-4.3264 0.1952,-4.3265 -0.3898,-3.36 c -0.4781,-4.1197 -1.6528,-7.7992 -3.1958,-10.0114 l -1.1639,-1.6686 -1.6662,-0.9985 c -0.9165,-0.5492 -2.2352,-1.0895 -2.9306,-1.2007 l -1.264,-0.2021 -4.0121,1.8962 c -4.6797,2.2119 -6.8957,3.8155 -11.0676,8.0088 -4.9177,4.9435 -9.2524,10.6379 -19.9795,26.2485 -10.5936,15.4159 -21.5885,33.8532 -31.7776,53.2878 -3.8035,7.2551 -7.4422,14.4495 -7.4422,14.7151 0,0.091 14.511,0.1649 32.2467,0.1649 h 32.247 z m -1435.9491,-303.52 c 0.093,-0.308 1.3349,-5.744 2.7605,-12.08 4.7467,-21.0963 10.8683,-42.1899 17.6113,-60.6843 4.5917,-12.5938 19.0057,-47.9229 26.5505,-65.0756 10.2512,-23.3058 26.3833,-50.4493 50.3288,-84.6822 10.7075,-15.3076 40.0108,-55.7616 47.1398,-65.0778 4.0405,-5.28 7.7543,-10.1401 8.253,-10.8001 l 0.9068,-1.2001 -732.8967,0.08 -732.89675,0.08 -0.6971,4.48 c -9.2623,59.5172 -51.2495,104.9396 -120.3055,130.148 -14.1758,5.1748 -30.5594,9.6801 -43.36,11.9234 -32.3606,5.6714 -75.7485,4.7033 -107.7416,-2.4037 -16.0751,-3.571 -25.0581,-6.7022 -38.9784,-13.5867 -24.4741,-12.104 -45.669,-28.2316 -64.0671,-48.7504 -6.5838,-7.3425 -14.4611,-15.2948 -17.2521,-17.4161 -2.0511,-1.5591 -4.7468,-3.1145 -5.3975,-3.1145 h -0.3813 l -0.2102,6.96 c -0.1156,3.828 -0.2106,57.54 -0.211,119.36 v 112.3999 h 855.33845 855.3384 l 0.1685,-0.56 z m 342.2164,-2.1138 c 3.6498,-4.2516 8.7484,-8.7169 19.2582,-16.8665 17.8145,-13.8137 32.8601,-24.3032 48.16,-33.5763 10.0468,-6.0892 15.8698,-8.8696 29.44,-14.0571 4.224,-1.6147 10.308,-3.9588 13.52,-5.2091 l 5.84,-2.2734 v -0.5119 c 0,-0.2815 -7.0079,-35.5516 -15.5731,-78.378 l -15.5731,-77.8662 -26.783,-13.3922 -26.7829,-13.3922 -42.6839,38.9642 -42.684,38.9644 -14.5224,14.854 c -7.9873,8.1698 -17.9742,18.2293 -22.193,22.3544 -4.2189,4.1251 -8.8374,8.9491 -10.2635,10.72 -1.4261,1.7709 -8.1533,9.9158 -14.9493,18.0998 -26.4499,31.8517 -32.1362,39.1248 -45.534,58.24 -11.655,16.6287 -21.3564,31.6044 -30.0024,46.3138 -2.6658,4.5354 -5.0501,8.5701 -5.2985,8.9661 l -0.4516,0.72 h 97.3906 97.3905 z m 518.8741,2.2216 c -0.3129,-0.553 -24.9066,-17.9204 -31.7759,-22.4393 -7.2822,-4.7905 -15.1383,-9.4692 -33.9258,-20.2043 l -16.7942,-9.5962 -90.24,-45.7057 c -49.632,-25.1382 -115.7145,-58.644 -146.8499,-74.4574 -31.1355,-15.8134 -56.6404,-28.7141 -56.6776,-28.6682 -0.1157,0.1428 23.0666,113.1691 23.2491,113.3516 0.1547,0.1547 47.0398,-4.8768 56.9184,-6.1083 7.6586,-0.9548 18.3519,-0.5255 29.76,1.1946 9.8353,1.4831 32.8316,6.5261 43.68,9.579 36.5771,10.2932 68.2979,26.4295 102.72,52.2537 5.3625,4.023 9.3473,7.4983 15.84,13.8145 9.4504,9.1935 12.6447,12.1832 15.8794,14.8621 l 3.1106,2.5761 h 42.6809 42.6809 z m 1336.9639,0.2392 25.2198,-0.2126 -2.6598,-0.7639 c -3.5536,-1.0206 -9.2602,-3.3128 -13.3814,-5.375 -10.1578,-5.0829 -25.6858,-15.3906 -35.0384,-23.2591 -22.2458,-18.7156 -36.802,-41.0496 -45.112,-69.2163 -2.3437,-7.9445 -3.0868,-11.8504 -4.1696,-21.92 -0.2743,-2.552 -0.9565,-7.88 -1.5159,-11.84 l -1.0169,-7.2 v -8.64 -8.64 l 0.5552,-4.7039 c 2.0172,-17.0896 6.3369,-31.5309 14.2905,-47.7761 7.9149,-16.1667 17.3322,-29.0783 30.9277,-42.4039 11.9194,-11.6828 23.1402,-20.0773 41.5574,-31.0906 16.6189,-9.9378 25.0439,-13.9375 33.28,-15.7992 1.408,-0.3183 2.6967,-0.6974 2.864,-0.8425 0.1671,-0.1451 -400.0448,-0.2638 -889.3599,-0.2638 h -889.664 l 0.01,0.4 c 0.026,1.0588 11.8036,58.2574 12.0393,58.4672 1.2636,1.1251 272.0597,137.4276 297.551,149.7694 31.946,15.4668 42.6534,21.1383 60,31.781 13.3347,8.1811 34.4832,22.5893 48.48,33.0286 2.64,1.969 10.92,8.784 18.4,15.1444 l 13.6,11.5644 h 628.96 c 345.928,0 640.3091,-0.093 654.1798,-0.2104 z M 5640.1598,1159.84 v -150.08 h -511.68 -511.68 l -0.022,24.4 c -0.037,39.6979 -0.5456,95.3571 -0.9232,101.04 -1.2083,18.191 -3.0464,29.329 -7.2358,43.84 -12.1018,41.9182 -31.4387,72.8038 -60.3418,96.3811 -5.1676,4.2153 -14.1014,10.7685 -21.0531,15.4434 -13.6195,9.1585 -26.2835,15.6306 -35.2115,17.9953 -1.6784,0.4446 -3.1114,0.8649 -3.185,0.9342 -0.073,0.069 258.9469,0.1259 575.6,0.1259 h 575.7334 V 1159.84 Z m -1055.68,-113.0128 v -37.1728 l -30.96,0.2126 c -17.0278,0.1169 -39.0121,0.2127 -48.8534,0.2128 -9.8413,10e-5 -17.801,0.093 -17.688,0.2055 0.113,0.113 4.8531,2.4603 10.5334,5.2163 l 10.328,5.0109 5.6,3.5551 c 18.624,11.823 36.4695,26.8061 49.8477,41.8524 8.7952,9.8918 14.1635,14.9876 18.0413,17.1252 0.9411,0.5187 2.0352,0.9458 2.431,0.949 l 0.72,0.01 v -37.1728 z m -2102.2244,-10.5283 c -0.2611,-1.3084 -0.7062,-4.4669 -0.9891,-7.0189 -0.8811,-7.9505 -1.8636,-11.891 -3.4442,-13.8146 l -0.7022,-0.8545 -7.4974,7.2726 -7.4975,7.2726 10.0575,4.9793 c 5.5316,2.7387 10.1677,4.8811 10.3025,4.7609 0.1348,-0.1202 0.031,-1.289 -0.2296,-2.5974 z m 2102.1448,-183.09893 -0.08,-121.04 -947.2105,-0.08 -947.2105,-0.08 -1.6407,4.88 c -3.321,9.8782 -7.4936,18.6833 -22.4159,47.3032 -19.6017,37.5945 -36.2069,64.6833 -56.6753,92.4569 -1.4916,2.024 -7.9131,9.8 -14.27,17.28003 -6.3569,7.48 -13.4229,15.832 -15.7022,18.56 -4.7237,5.6536 -11.1094,12.793 -16.4575,18.4 -8.6263,9.0437 -23.6377,23.9577 -28.8173,28.63 -8.6231,7.7787 -13.12,12.6844 -13.12,14.3126 v 0.4174 h 1031.8403 1031.8406 z m 1055.6799,0 -0.08,-121.04 -511.1299,-0.08 -511.1302,-0.08 -0.1261,0.4001 c -0.069,0.2201 -0.1904,54.7241 -0.2688,121.1201 l -0.1427,120.72003 h 511.4793 511.4794 z M 2281.5999,934.012 c 0.9392,-0.4618 9.0711,-9.0912 14.2597,-15.132 1.4361,-1.672 7.5173,-7.864 13.5138,-13.76 29.3951,-28.90263 100.6265,-99.06683 111.0504,-109.38653 l 11.7839,-11.6662 -5.1848,-26.0336 -5.1849,-26.0337 -271.399,0.01 -271.3991,0.01 0.5813,0.4406 c 0.4815,0.3651 176.5203,90.203 341.0187,174.03223 21.56,10.9871 41,21.0269 43.2,22.3106 9.3748,5.4704 14.2936,6.9128 17.76,5.2083 z m 203.68,-201.76883 c 0,-0.1337 -3.1836,-0.2432 -7.0747,-0.2432 h -7.0747 l 0.1724,0.72 c 0.095,0.396 0.5462,2.736 1.0032,5.2 0.457,2.464 0.9146,4.8949 1.017,5.4021 l 0.1862,0.9221 5.8853,-5.8788 c 3.2369,-3.2334 5.8853,-5.9884 5.8853,-6.1222 z m -1324.3199,-35.8486 1.92,-0.075 -2.6532,-1.0813 c -1.4592,-0.5947 -4.1388,-2.0625 -5.9546,-3.2617 -16.9776,-11.2128 -27.724,-38.2479 -27.7089,-69.7084 0.01,-11.8191 0.6595,-16.9689 4.5141,-35.5486 16.5211,-79.6362 35.81,-145.577 60.8437,-208 10.7994,-26.929 14.9016,-38.373 20.1885,-56.32 2.225,-7.5533 3.2948,-12.3713 3.7343,-16.8176 l 0.3496,-3.5376 -0.3475,-2.796 c -0.1911,-1.5377 -0.5948,-3.4738 -0.8971,-4.3024 l -0.5498,-1.5064 -1.4963,-0.7428 c -0.823,-0.4085 -2.5131,-0.8936 -3.756,-1.0781 l -2.2596,-0.3354 -2.9636,1.6841 c -12.0327,6.8377 -22.8515,16.2972 -34.0274,29.7522 -1.535,1.848 -6.2761,7.1071 -10.5359,11.6869 -4.2598,4.5798 -8.4996,9.1878 -9.422,10.24 -5.6832,6.4834 -31.0045,41.515 -49.1463,67.9931 -17.8841,26.102 -36.6457,55.4944 -58.937,92.3322 -11.5449,19.0785 -12.9496,21.6002 -24.415,43.8278 -8.4793,16.4383 -10.3484,19.9361 -15.1334,28.32 -6.4734,11.3418 -10.6306,19.9694 -21.1403,43.873 -11.5435,26.2548 -16.52575,38.2838 -20.99365,50.687 -3.1997,8.8826 -8.0801,24.3277 -7.8364,24.8 0.079,0.1529 204.64475,0.069 208.62375,-0.085 z m 223.4927,0.047 123.3872,-0.038 -1.44,-0.3128 c -4.04,-0.8775 -6.7694,-1.6684 -8.7966,-2.5492 -14.0604,-6.1092 -26.1912,-22.2407 -34.9686,-46.5012 l -1.6208,-4.48 -2.6231,-11.2 c -1.4426,-6.16 -2.7148,-11.3007 -2.8269,-11.4237 -0.1122,-0.1231 -0.9472,0.7173 -1.8556,1.8675 -5.1507,6.5215 -10.9417,12.2712 -19.4683,19.3292 -2.64,2.1853 -6.96,5.8523 -9.6,8.1488 -11.4825,9.9888 -14.3328,12.42 -18.56,15.8309 -13.3592,10.7794 -25.0387,17.5143 -38.5618,22.2362 -4.6927,1.6386 -10.0958,2.9102 -14.3718,3.3824 l -3.6383,0.4018 -4.8341,-0.1946 -4.834,-0.1947 -3.8623,-0.8026 c -20.6511,-4.2912 -38.5602,-19.8843 -45.3972,-39.5263 -1.1764,-3.3799 -2.4205,-8.7999 -2.4205,-10.5452 0,-1.5433 -0.5364,-1.1791 -1.7229,1.1703 -3.5058,6.9416 -10.3867,15.3923 -21.0418,25.8423 -13.7432,13.4786 -28.5568,24.4836 -38.1179,28.3177 -1.5362,0.616 -2.794,1.2516 -2.7952,1.4124 0,0.1756 7.3039,0.2076 18.2905,0.08 10.061,-0.1168 73.817,-0.2297 141.68,-0.2508 z m 351.8672,-0.047 1.92,-0.075 -5.44,-2.7533 -5.44,-2.7533 -3.406,-0.2016 -3.406,-0.2016 -3.3382,-1.0935 c -3.5537,-1.1641 -7.8062,-3.1666 -10.1684,-4.7882 -0.7913,-0.5432 -3.3974,-2.8643 -5.7913,-5.1581 l -4.3525,-4.1704 -23.4888,-11.8103 c -12.9188,-6.4956 -23.5503,-11.8611 -23.6254,-11.9233 -0.075,-0.062 0.2292,-0.5076 0.6763,-0.9898 0.4472,-0.4821 4.7425,-6.2046 9.5452,-12.7166 4.8026,-6.512 8.7827,-11.9005 8.8445,-11.9743 0.062,-0.074 0.8317,0.2026 1.7106,0.6143 0.879,0.4116 1.6713,0.6754 1.7607,0.586 0.089,-0.089 0.018,-0.9254 -0.1591,-1.8579 -0.4216,-2.2231 -0.4079,-5.0063 0.035,-7.1124 1.4478,-6.8835 7.2191,-10.9417 16.5637,-11.6472 l 2.8226,-0.2131 0.2222,2.1685 c 1.0513,10.2613 6.7363,28.728 10.3475,33.6116 l 0.958,1.2956 17.2447,8.6768 17.2446,8.6768 2.9297,-0.7454 c 16.9939,-4.3238 29.3172,-20.8616 37.0785,-49.7593 2.9542,-10.9992 4.2442,-18.4774 4.5266,-26.24 l 0.1921,-5.28 -0.3779,-2.88 c -0.5189,-3.9547 -2.2943,-11.8239 -4.039,-17.9024 -3.5187,-12.2595 -8.9305,-24.8797 -16.027,-37.3751 -1.4736,-2.5947 -4.1428,-7.4907 -5.9315,-10.88 -3.906,-7.4012 -6.5053,-11.8272 -8.629,-14.6926 -1.5402,-2.0781 -3.8845,-4.4483 -4.3634,-4.4116 -0.2131,0.016 -48.6233,60.291 -66.5512,82.8617 -37.1643,46.7887 -68.8322,77.6019 -103.7679,100.9673 -13.0179,8.7065 -20.5703,12.9405 -28.96,16.2353 -6.5692,2.58 -10.9799,3.9366 -15.84,4.8718 -2.376,0.4572 -4.5754,0.9335 -4.8875,1.0585 -0.4933,0.1974 208.2808,0.1795 213.3675,-0.018 z m 785.1242,-2.481 c 2.7225,-4.0488 4.8389,-6.4484 13.2603,-15.0337 8.4059,-8.5697 8.2336,-8.3699 23.7371,-27.52 22.3618,-27.6217 30.0685,-38.022 46.3572,-62.56 22.9252,-34.5354 40.439,-66.5039 54.9598,-100.32 12.2907,-28.6224 15.5418,-40.5785 23.581,-86.72 1.7631,-10.12 3.5019,-19.984 3.8638,-21.92 0.362,-1.936 1.3034,-11.008 2.092,-20.16 0.7886,-9.152 1.7151,-18.584 2.0588,-20.96 1.0336,-7.1458 1.5846,-13.1687 1.9859,-21.7062 l 0.381,-8.1062 -0.3779,-7.8938 c -1.1203,-23.4048 -5.3517,-41.9033 -13.0465,-57.0359 -10.7167,-21.0754 -26.3394,-30.5532 -53.7367,-32.6005 -2.464,-0.1841 -5.6333,-0.3354 -7.0428,-0.3361 h -2.5629 l -6.8771,1.2476 -6.8772,1.2476 -3.8162,1.3657 c -4.8633,1.7403 -12.6497,5.6075 -17.7838,8.8324 -16.7925,10.5481 -32.7944,27.0282 -46.5556,47.9467 -9.8732,15.0082 -15.1126,25.1586 -28.2591,54.7457 -22.7369,51.1713 -25.5736,58.745 -38.4327,102.6084 -4.8983,16.7083 -5.5472,19.3164 -7.227,29.0459 -0.6229,3.608 -1.7066,9.8 -2.4083,13.76 -0.7017,3.96 -3.0657,18.216 -5.2533,31.68 l -3.9776,24.48 -0.6704,10.72 c -0.3688,5.896 -0.8179,11.872 -0.9982,13.28 -0.1802,1.408 -0.4562,7.024 -0.6133,12.48 l -0.2857,9.92 -0.8004,5.44 c -1.0284,6.9903 -1.2939,11.2389 -0.8896,14.24 2.5324,18.8014 6.8751,48.0437 8.1976,55.2 0.897,4.8541 9.4783,45.2575 9.9737,46.96 l 0.1631,0.56 h 27.9701 27.9702 l 1.9407,-2.8863 z"
       id="path293" />
  </g>
</svg>
