<svg viewBox="0 0 204 40" xmlns="http://www.w3.org/2000/svg" xml:space="preserve" style="fill:#00747a;fill-rule:evenodd;clip-rule:evenodd;stroke-linejoin:round;stroke-miterlimit:2"><path d="M138.97 27.6c0-.21-.1-.32-.3-.32h-1.05c-.2 0-.3.1-.3.31v9.61c0 1.06-.31 1.46-1.04 1.46l-.35-.02c-.14 0-.22.07-.22.25v.78c0 .19.13.3.7.3 1.56 0 2.56-.77 2.56-2.64v-9.74Zm-14.23 3.58c0-2.58-1.43-4.04-3.8-4.04-2.48 0-4.11 1.77-4.11 4.67 0 2.83 1.48 4.47 4.48 4.47 1.08 0 2.35-.19 2.78-.52.18-.13.2-.24.2-.46v-.61c0-.2-.1-.28-.25-.28-.26 0-1.06.64-2.55.64-1.9 0-2.92-1.14-2.92-2.91 0-.18.1-.24.26-.24h5.6c.22 0 .3-.13.3-.32v-.4ZM39.5 27.6c0-.19-.1-.3-.3-.3h-1.07c-.19 0-.28.11-.28.3v6.33c0 .52-.22.73-.7.92-.34.14-.84.23-1.21.23-1.56 0-2.09-.64-2.09-2.05V27.6c0-.19-.08-.3-.27-.3H32.5c-.21 0-.3.11-.3.3v4.96c0 1.46.09 2.23.66 2.87.56.62 1.48.86 2.49.86 1.4 0 1.88-.48 2.45-.48.14 0 .17.03.17.12 0 .16.07.23.25.23h.95c.23 0 .33-.1.33-.32V27.6Zm121.1 6.1c0-.91-.4-1.59-1.2-2.1l-1.87-1.2c-.45-.28-.72-.58-.72-1.06 0-.57.5-.94 1.43-.94 1.15 0 1.63.64 1.93.64.2 0 .26-.12.26-.27v-.72c0-.2-.03-.32-.28-.46a4.35 4.35 0 0 0-1.98-.44c-1.86 0-2.92.89-2.92 2.41 0 .85.37 1.51 1.44 2.2l1.38.9c.7.44.9.72.9 1.24 0 .73-.5 1.14-1.6 1.14-1.27 0-1.65-.64-2.03-.64-.21 0-.26.13-.26.28v.73c0 .2.07.35.3.47.53.28 1.26.41 2.13.41 1.84 0 3.1-.85 3.1-2.6Zm-11.6-2.5c0-2.6-1.43-4.05-3.8-4.05-2.48 0-4.12 1.77-4.12 4.67 0 2.83 1.48 4.47 4.49 4.47 1.08 0 2.35-.19 2.78-.52.17-.13.2-.24.2-.46v-.61c0-.2-.1-.28-.25-.28-.26 0-1.06.64-2.56.64-1.9 0-2.92-1.14-2.92-2.91 0-.18.1-.24.26-.24h5.6c.23 0 .31-.13.31-.32v-.4Zm20.35-1.22c0-1.13-.16-1.7-.68-2.17-.5-.45-1.29-.66-2.47-.66-1.16 0-2.1.18-2.88.5-.34.14-.39.28-.39.5v.72c0 .16.07.28.23.28.38 0 .97-.75 2.89-.75 1.16 0 1.65.35 1.65 1.08v.4c0 .3-.13.43-.53.55l-2.06.63c-2.04.6-2.8 1.35-2.8 2.79 0 1.23.57 2.44 2.95 2.44 1.36 0 1.98-.48 2.38-.48.14 0 .18.03.18.12 0 .16.07.23.24.23h1c.2 0 .29-.1.29-.32v-5.86ZM51.18 34.98c0-.22-.1-.3-.25-.3-.24 0-.48.35-1.35.35-.87 0-1.22-.48-1.22-1.4v-4.9c0-.16.07-.23.17-.23h2.35c.2 0 .3-.1.3-.32v-.59c0-.22-.1-.3-.3-.3h-2.35c-.1 0-.17-.08-.17-.22v-1.82c0-.22-.1-.33-.33-.33h-1c-.23 0-.32.1-.32.33v1.82c0 .14-.05.21-.17.21h-.92c-.21 0-.34.09-.34.31v.6c0 .2.13.3.34.3h.92c.12 0 .17.1.17.23v4.84c0 1.82.64 2.72 2.62 2.72.61 0 1.85-.15 1.85-.64v-.66Zm-21.05-.3c0-.18-.09-.29-.25-.29-.33 0-.95.64-2.41.64-1.8 0-2.82-1.16-2.82-3.27 0-1.86.87-3.37 2.94-3.37 1.46 0 1.9.64 2.3.64.15 0 .24-.07.24-.27v-.72c0-.2-.04-.3-.26-.45a5.63 5.63 0 0 0-2.3-.45c-3.23 0-4.66 1.95-4.66 4.67 0 2.69 1.43 4.47 4.44 4.47 1.06 0 2.03-.19 2.52-.46.15-.1.26-.21.26-.45v-.7Zm30.22-7.09c0-.19-.1-.3-.3-.3h-1.07c-.19 0-.28.11-.28.3v6.33c0 .52-.22.73-.7.92-.34.14-.84.23-1.2.23-1.57 0-2.1-.64-2.1-2.05V27.6c0-.19-.08-.3-.27-.3h-1.08c-.2 0-.3.11-.3.3v4.96c0 1.46.1 2.23.67 2.87.55.62 1.47.86 2.48.86 1.4 0 1.88-.48 2.45-.48.14 0 .18.03.18.12 0 .16.07.23.24.23h.95c.23 0 .33-.1.33-.32V27.6Zm54.88 3.6c0-2.6-1.42-4.05-3.79-4.05-2.48 0-4.12 1.77-4.12 4.67 0 2.83 1.48 4.47 4.49 4.47 1.07 0 2.34-.19 2.78-.52.17-.13.19-.24.19-.46v-.61c0-.2-.09-.28-.25-.28-.26 0-1.06.64-2.55.64-1.9 0-2.92-1.14-2.92-2.91 0-.18.1-.24.26-.24h5.6c.22 0 .31-.13.31-.32v-.4Zm-13.85 0c0-2.6-1.43-4.05-3.8-4.05-2.48 0-4.11 1.77-4.11 4.67 0 2.83 1.47 4.47 4.48 4.47 1.08 0 2.35-.19 2.78-.52.18-.13.2-.24.2-.46v-.61c0-.2-.1-.28-.25-.28-.26 0-1.06.64-2.55.64-1.9 0-2.92-1.14-2.92-2.91 0-.18.1-.24.26-.24h5.6c.22 0 .3-.13.3-.32v-.4Zm-31.15-3.6c0-.19-.1-.3-.3-.3h-1.08c-.19 0-.27.11-.27.3v6.33c0 .52-.23.73-.7.92-.35.14-.85.23-1.22.23-1.56 0-2.08-.64-2.08-2.05V27.6c0-.19-.09-.3-.28-.3h-1.08c-.2 0-.3.11-.3.3v4.96c0 1.46.1 2.23.67 2.87.55.62 1.47.86 2.48.86 1.41 0 1.88-.48 2.45-.48.14 0 .18.03.18.12 0 .16.07.23.24.23h.96c.22 0 .33-.1.33-.32V27.6Zm21.64 4.01c0-2.76-1.5-4.46-4.1-4.46-1.29 0-1.97.54-2.18.54-.14 0-.17-.09-.17-.23v-3.48c0-.21-.1-.31-.3-.31h-1.06c-.19 0-.27.1-.27.3v11.87c0 .21.08.32.27.32h1c.17 0 .24-.06.24-.23 0-.09.02-.12.19-.12.4 0 .85.48 2.12.48 2.56 0 4.26-1.64 4.26-4.68Zm102.73-.42c0-2.58-1.43-4.04-3.8-4.04-2.48 0-4.11 1.77-4.11 4.67 0 2.83 1.47 4.47 4.48 4.47 1.08 0 2.35-.19 2.78-.52.18-.13.2-.24.2-.46v-.61c0-.2-.1-.28-.25-.28-.26 0-1.06.64-2.55.64-1.9 0-2.92-1.14-2.92-2.91 0-.18.1-.24.26-.24h5.6c.22 0 .3-.13.3-.32v-.4Zm-117-3.57c0-.31-.16-.47-.78-.47-1.12 0-1.72.68-2.25.68-.1 0-.19-.09-.19-.18v-.13c0-.16-.08-.23-.22-.23h-1c-.2 0-.29.1-.29.31v8.24c0 .23.1.32.3.32h1.04c.19 0 .3-.1.3-.32v-5.95c0-.99.64-1.33 1.54-1.33.94 0 1.03.15 1.3.15.18 0 .25-.12.25-.27v-.82ZM204 30.89c0-1.46-.09-2.22-.68-2.86-.55-.63-1.47-.89-2.48-.89-1.38 0-1.88.49-2.44.49-.15 0-.17-.05-.17-.12 0-.14-.07-.23-.24-.23h-.96c-.2 0-.31.1-.31.31v8.24c0 .23.1.32.3.32h1.03c.2 0 .3-.1.3-.32v-6.4c0-.8 1.08-1.07 2.03-1.07.7 0 1.3.22 1.66.69.22.3.3.94.3 1.42v5.36c0 .21.11.32.3.32h1.05c.2 0 .31-.1.31-.32V30.9Zm-19.43-.4c0-1.14-.14-1.86-.66-2.45-.53-.6-1.25-.9-2.32-.9-1.96 0-2.48.78-3 .78h-.1c-.39 0-.69-.78-2.4-.78-1.43 0-1.8.49-2.4.49-.16 0-.18-.05-.18-.12 0-.18-.09-.23-.24-.23h-.98c-.19 0-.3.1-.3.31v8.24c0 .23.11.32.3.32h1.05c.17 0 .3-.1.3-.32V29.4c0-.77 1.16-1.04 1.84-1.04 1.42 0 1.98.69 1.98 1.97v5.5c0 .23.12.32.3.32h1.04c.19 0 .3-.1.3-.32V29.4c0-.77 1.12-1.04 1.85-1.04 1.4 0 1.97.69 1.97 1.97v5.5c0 .23.12.32.3.32h1.03c.2 0 .32-.1.32-.32V30.5Zm-79.4-6.52c0-.21-.1-.31-.3-.31h-1.04c-.2 0-.3.1-.3.3v11.87c0 .21.1.32.3.32h1.04c.2 0 .3-.1.3-.32V23.97Zm25.64.1c0-.31-.4-.5-1.34-.5-1.62 0-2.4.95-2.4 2.41v1.1c0 .13-.07.2-.18.2h-.95c-.2 0-.3.12-.3.31v.6c0 .18.1.3.3.3h.95c.1 0 .18.08.18.23v7.11c0 .21.1.32.28.32h1.07c.2 0 .3-.1.3-.32v-7.1c0-.16.05-.23.19-.23h1.48c.22 0 .31-.1.31-.32v-.59c0-.2-.1-.3-.31-.3h-1.48c-.14 0-.2-.08-.2-.22v-1.1c0-.8.34-1.15 1.02-1.15.5 0 .64.2.85.2.16 0 .22-.06.22-.27v-.68Zm-86.99-.1c0-.21-.1-.31-.3-.31H42.5c-.2 0-.3.1-.3.3v11.87c0 .21.1.32.3.32h1.04c.19 0 .3-.1.3-.32V23.97Zm46.31 7.67c0 2.4-1.15 3.41-2.87 3.41-.78 0-1.84-.24-1.84-1.07v-4.55c0-.7.85-1.06 1.83-1.06 2.08 0 2.88 1.29 2.88 3.27Zm77.58 2.44c0 .56-.79.97-2.04.97-.88 0-1.61-.31-1.61-1.32 0-.83.45-1.23 1.35-1.52l1.86-.63a.95.95 0 0 1 .3-.07c.08 0 .14.06.14.18v2.4Zm-20.43-3.59c0 .2-.05.23-.2.23h-4.04c-.17 0-.2-.07-.2-.18 0-1.13.8-2.2 2.27-2.2 1.32 0 2.17.8 2.17 2.15Zm-33.77 0c0 .2-.05.23-.2.23h-4.04c-.18 0-.21-.07-.21-.18 0-1.13.8-2.2 2.28-2.2 1.32 0 2.17.8 2.17 2.15Zm-13.85 0c0 .2-.06.23-.21.23H95.4c-.17 0-.2-.07-.2-.18 0-1.13.8-2.2 2.27-2.2 1.32 0 2.18.8 2.18 2.15Zm93.22 0c0 .2-.06.23-.21.23h-4.04c-.17 0-.2-.07-.2-.18 0-1.13.8-2.2 2.27-2.2 1.32 0 2.18.8 2.18 2.15Zm-69.86 0c0 .2-.05.23-.21.23h-4.03c-.18 0-.21-.07-.21-.18 0-1.13.8-2.2 2.28-2.2 1.32 0 2.17.8 2.17 2.15Zm16.13-5.85c0-.64-.37-.98-1-.98-.62 0-1 .34-1 .97 0 .66.33 1 .99 1 .64 0 1-.3 1-.99ZM75.31.6c0-.2-.14-.35-.4-.35h-2.78c-.33 0-.47.1-.52.32l-4.25 13.99c-.08.27-.16.35-.27.35-.1 0-.16-.08-.25-.35L62.77.57c-.08-.24-.24-.32-.52-.32h-3.56c-.33 0-.46.13-.46.35 0 .1.02.27.08.4l5.44 16.95c.27.82.52.98 1.2.98h3.46c.7 0 .95-.3 1.17-.98L75.23 1c.05-.16.08-.27.08-.4Zm36.31-.6c-4.38 0-6.72 1.8-6.72 5.05 0 2.26.9 3.78 2.85 4.97l3.16 1.93c1.23.76 1.47 1.25 1.47 2.04 0 1.14-.73 1.82-2.72 1.82-3.24 0-4.2-1.22-4.7-1.22-.28 0-.39.13-.39.43v2.26c0 .48.19.62.87.92 1.23.52 2.78.73 4.52.73 4.57 0 6.64-2.2 6.64-5.48 0-2.42-.7-3.83-3.54-5.38l-2.48-1.36c-1.2-.65-1.52-1.14-1.52-1.93 0-1 .7-1.66 2.5-1.66 2.97 0 3.7 1.28 4.41 1.28.33 0 .39-.24.39-.46V1.63c0-.35-.09-.54-.69-.81a9.57 9.57 0 0 0-4.05-.82Zm29.72 0c-6.31 0-9.22 4.02-9.22 9.5 0 5.69 3.15 9.43 9.22 9.43 6.34 0 9.26-4.02 9.26-9.5 0-5.68-3.16-9.43-9.26-9.43Zm57.68 0c-4.38 0-6.72 1.8-6.72 5.05 0 2.26.9 3.78 2.85 4.97l3.16 1.93c1.23.76 1.47 1.25 1.47 2.04 0 1.14-.73 1.82-2.72 1.82-3.24 0-4.2-1.22-4.71-1.22-.27 0-.38.13-.38.43v2.26c0 .48.19.62.87.92 1.22.52 2.78.73 4.52.73 4.57 0 6.64-2.2 6.64-5.48 0-2.42-.7-3.83-3.54-5.38L198 6.7c-1.2-.65-1.53-1.14-1.53-1.93 0-1 .7-1.66 2.5-1.66 2.97 0 3.7 1.28 4.41 1.28.33 0 .38-.24.38-.46V1.63c0-.35-.08-.54-.68-.81a9.57 9.57 0 0 0-4.05-.82ZM40.04 9.37c0-2.66-.85-4.83-2.13-6.35C36.23 1 33.88.25 30.18.25h-6.75c-.35 0-.52.13-.52.51v17.47c0 .3.17.49.5.49h6.4c2.69 0 4.6-.46 6.06-1.28 2.64-1.44 4.17-4.37 4.17-8.07ZM51.22 0h-3.34c-.63 0-.96.27-1.12.79l-5.64 17.16c-.05.17-.08.28-.08.41 0 .22.14.36.47.36H44c.24 0 .38-.09.46-.33L46 13.5c.08-.27.19-.33.49-.33h5.03c.33 0 .44.09.52.38l1.41 4.84c.06.2.2.33.44.33h3.48c.33 0 .47-.14.47-.36 0-.1-.03-.24-.09-.4L52.38.78C52.16.22 51.9 0 51.22 0Zm30.51 18.23V.73c0-.32-.16-.48-.49-.48H77.8c-.36 0-.52.16-.52.48v17.5c0 .32.16.49.49.49h3.48c.3 0 .5-.17.5-.5Zm20.9-8.86c0-2.66-.84-4.83-2.11-6.35C98.81 1 96.48.25 92.78.25h-6.76c-.35 0-.51.13-.51.51v17.47c0 .3.16.49.49.49h6.4c2.69 0 4.6-.46 6.06-1.28 2.64-1.44 4.17-4.37 4.17-8.07ZM130.79 3V.73c0-.35-.19-.48-.46-.48h-10.15c-.36 0-.5.18-.5.48v17.5c0 .32.2.49.5.49h3.48c.3 0 .49-.17.49-.5v-6.57c0-.27.14-.32.33-.32h4.73c.36 0 .52-.17.52-.52V8.58c0-.32-.16-.51-.52-.51h-4.73c-.2 0-.33-.08-.33-.33V3.8c0-.24.08-.32.33-.32h5.85c.33 0 .46-.14.46-.5Zm38.38 15.24V.73c0-.35-.16-.48-.49-.48h-2.48c-.35 0-.49.16-.49.48v12.15c0 .16-.05.21-.1.21-.11 0-.17-.05-.25-.21L159.42.65c-.14-.27-.33-.4-.77-.4h-4.68c-.32 0-.49.18-.49.48v17.5c0 .32.17.49.5.49h2.47c.35 0 .49-.17.49-.5V5.6c0-.17.05-.22.1-.22.12 0 .17.05.25.22l5.77 11.87c.52 1.08.76 1.25 1.28 1.25h4.33c.35 0 .49-.2.49-.5Zm20.88-8.86c0-2.66-.85-4.83-2.13-6.35C186.23 1 183.9.25 180.18.25h-6.75c-.35 0-.51.13-.51.51v17.47c0 .3.16.49.49.49h6.4c2.69 0 4.6-.46 6.06-1.28 2.64-1.44 4.17-4.37 4.17-8.07ZM146 9.48c0 4.1-1.66 6.3-4.66 6.3-3.1 0-4.63-2.2-4.63-6.33 0-4.23 1.77-6.27 4.63-6.27 3 0 4.66 2.04 4.66 6.3ZM35.4 9.4c0 5.38-3.53 6.08-6 6.08h-1.67c-.21 0-.35-.08-.35-.35V3.8c0-.21.1-.32.3-.32h1.98c3.43 0 5.75 1.55 5.75 5.92Zm62.61 0c0 5.38-3.54 6.08-6.02 6.08h-1.66c-.21 0-.35-.08-.35-.35V3.8c0-.21.11-.32.3-.32h1.99C95.7 3.48 98 5.03 98 9.4Zm87.4 0c0 5.38-3.54 6.08-6.02 6.08h-1.66c-.21 0-.35-.08-.35-.35V3.8c0-.21.1-.32.3-.32h1.99c3.43 0 5.74 1.55 5.74 5.92Zm-134.35.81c0 .17-.14.2-.3.2h-3.48c-.14 0-.28-.03-.28-.2 0-.08.03-.19.09-.38l1.76-5.73c.06-.19.14-.3.22-.3.08 0 .16.08.22.28l1.69 5.75c.05.14.08.28.08.38ZM0 2.26C.03 1.89.24.28 2.05.28h14.37s2.05 0 2.05 2.05v14.34s0 2.05-2.05 2.05H7.58c-.12.07-.22.16-.32.26-.32.42-.48.97-.48 1.64 0 2.38 1.34 4.9 4.03 7.58a47.86 47.86 0 0 0 6.8 5.41l-1.16 2.18c-4.37-2.52-7.71-4.94-10.04-7.26C2.25 24.28.1 19.58 0 14.43V2.25Z"/></svg>